<svg width="192" height="184" viewBox="0 0 192 184" fill="none" xmlns="http://www.w3.org/2000/svg">
<rect width="192" height="184" rx="8" fill="#E1FAEC"/>
<path d="M39.9609 140.547V145H38.4609V133.625H42.6562C43.901 133.625 44.875 133.943 45.5781 134.578C46.2865 135.214 46.6406 136.055 46.6406 137.102C46.6406 138.206 46.2943 139.057 45.6016 139.656C44.9141 140.25 43.9271 140.547 42.6406 140.547H39.9609ZM39.9609 139.32H42.6562C43.4583 139.32 44.0729 139.133 44.5 138.758C44.9271 138.378 45.1406 137.831 45.1406 137.117C45.1406 136.44 44.9271 135.898 44.5 135.492C44.0729 135.086 43.487 134.875 42.7422 134.859H39.9609V139.32ZM49.8984 145H48.4531V136.547H49.8984V145ZM48.3359 134.305C48.3359 134.07 48.4062 133.872 48.5469 133.711C48.6927 133.549 48.9062 133.469 49.1875 133.469C49.4688 133.469 49.6823 133.549 49.8281 133.711C49.974 133.872 50.0469 134.07 50.0469 134.305C50.0469 134.539 49.974 134.734 49.8281 134.891C49.6823 135.047 49.4688 135.125 49.1875 135.125C48.9062 135.125 48.6927 135.047 48.5469 134.891C48.4062 134.734 48.3359 134.539 48.3359 134.305ZM53.7891 145H52.3438V133H53.7891V145ZM57.5547 137.57C58.1953 136.784 59.0286 136.391 60.0547 136.391C61.8411 136.391 62.7422 137.398 62.7578 139.414V145H61.3125V139.406C61.3073 138.797 61.1667 138.346 60.8906 138.055C60.6198 137.763 60.1953 137.617 59.6172 137.617C59.1484 137.617 58.737 137.742 58.3828 137.992C58.0286 138.242 57.7526 138.57 57.5547 138.977V145H56.1094V133H57.5547V137.57ZM70.1406 145C70.0573 144.833 69.9896 144.536 69.9375 144.109C69.2656 144.807 68.4635 145.156 67.5312 145.156C66.6979 145.156 66.013 144.922 65.4766 144.453C64.9453 143.979 64.6797 143.38 64.6797 142.656C64.6797 141.776 65.013 141.094 65.6797 140.609C66.3516 140.12 67.2943 139.875 68.5078 139.875H69.9141V139.211C69.9141 138.706 69.763 138.305 69.4609 138.008C69.1589 137.706 68.7135 137.555 68.125 137.555C67.6094 137.555 67.1771 137.685 66.8281 137.945C66.4792 138.206 66.3047 138.521 66.3047 138.891H64.8516C64.8516 138.469 65 138.062 65.2969 137.672C65.599 137.276 66.0052 136.964 66.5156 136.734C67.0312 136.505 67.5964 136.391 68.2109 136.391C69.1849 136.391 69.9479 136.635 70.5 137.125C71.0521 137.609 71.3385 138.279 71.3594 139.133V143.023C71.3594 143.799 71.4583 144.417 71.6562 144.875V145H70.1406ZM67.7422 143.898C68.1953 143.898 68.625 143.781 69.0312 143.547C69.4375 143.312 69.7318 143.008 69.9141 142.633V140.898H68.7812C67.0104 140.898 66.125 141.417 66.125 142.453C66.125 142.906 66.276 143.26 66.5781 143.516C66.8802 143.771 67.2682 143.898 67.7422 143.898ZM78.5469 142.758C78.5469 142.367 78.3984 142.065 78.1016 141.852C77.8099 141.633 77.2969 141.445 76.5625 141.289C75.8333 141.133 75.2526 140.945 74.8203 140.727C74.3932 140.508 74.0755 140.247 73.8672 139.945C73.6641 139.643 73.5625 139.284 73.5625 138.867C73.5625 138.174 73.8542 137.589 74.4375 137.109C75.026 136.63 75.776 136.391 76.6875 136.391C77.6458 136.391 78.4219 136.638 79.0156 137.133C79.6146 137.628 79.9141 138.26 79.9141 139.031H78.4609C78.4609 138.635 78.2917 138.294 77.9531 138.008C77.6198 137.721 77.1979 137.578 76.6875 137.578C76.1615 137.578 75.75 137.693 75.4531 137.922C75.1562 138.151 75.0078 138.451 75.0078 138.82C75.0078 139.169 75.1458 139.432 75.4219 139.609C75.6979 139.786 76.1953 139.956 76.9141 140.117C77.638 140.279 78.224 140.471 78.6719 140.695C79.1198 140.919 79.4505 141.19 79.6641 141.508C79.8828 141.82 79.9922 142.203 79.9922 142.656C79.9922 143.411 79.6901 144.018 79.0859 144.477C78.4818 144.93 77.6979 145.156 76.7344 145.156C76.0573 145.156 75.4583 145.036 74.9375 144.797C74.4167 144.557 74.0078 144.224 73.7109 143.797C73.4193 143.365 73.2734 142.898 73.2734 142.398H74.7188C74.7448 142.883 74.9375 143.268 75.2969 143.555C75.6615 143.836 76.1406 143.977 76.7344 143.977C77.2812 143.977 77.7188 143.867 78.0469 143.648C78.3802 143.424 78.5469 143.128 78.5469 142.758ZM89.3516 145.156C88.2057 145.156 87.2734 144.781 86.5547 144.031C85.8359 143.276 85.4766 142.268 85.4766 141.008V140.742C85.4766 139.904 85.6354 139.156 85.9531 138.5C86.276 137.839 86.724 137.323 87.2969 136.953C87.875 136.578 88.5 136.391 89.1719 136.391C90.2708 136.391 91.125 136.753 91.7344 137.477C92.3438 138.201 92.6484 139.237 92.6484 140.586V141.188H86.9219C86.9427 142.021 87.1849 142.695 87.6484 143.211C88.1172 143.721 88.7109 143.977 89.4297 143.977C89.9401 143.977 90.3724 143.872 90.7266 143.664C91.0807 143.456 91.3906 143.18 91.6562 142.836L92.5391 143.523C91.8307 144.612 90.7682 145.156 89.3516 145.156ZM89.1719 137.578C88.5885 137.578 88.099 137.792 87.7031 138.219C87.3073 138.641 87.0625 139.234 86.9688 140H91.2031V139.891C91.1615 139.156 90.9635 138.589 90.6094 138.188C90.2552 137.781 89.776 137.578 89.1719 137.578ZM98.5234 145V133.625H102.242C103.477 133.625 104.404 133.88 105.023 134.391C105.648 134.901 105.961 135.656 105.961 136.656C105.961 137.188 105.81 137.659 105.508 138.07C105.206 138.477 104.794 138.792 104.273 139.016C104.888 139.188 105.372 139.516 105.727 140C106.086 140.479 106.266 141.052 106.266 141.719C106.266 142.74 105.935 143.542 105.273 144.125C104.612 144.708 103.677 145 102.469 145H98.5234ZM100.023 139.68V143.773H102.5C103.198 143.773 103.747 143.594 104.148 143.234C104.555 142.87 104.758 142.37 104.758 141.734C104.758 140.365 104.013 139.68 102.523 139.68H100.023ZM100.023 138.477H102.289C102.945 138.477 103.469 138.312 103.859 137.984C104.255 137.656 104.453 137.211 104.453 136.648C104.453 136.023 104.271 135.57 103.906 135.289C103.542 135.003 102.987 134.859 102.242 134.859H100.023V138.477ZM113.484 145C113.401 144.833 113.333 144.536 113.281 144.109C112.609 144.807 111.807 145.156 110.875 145.156C110.042 145.156 109.357 144.922 108.82 144.453C108.289 143.979 108.023 143.38 108.023 142.656C108.023 141.776 108.357 141.094 109.023 140.609C109.695 140.12 110.638 139.875 111.852 139.875H113.258V139.211C113.258 138.706 113.107 138.305 112.805 138.008C112.503 137.706 112.057 137.555 111.469 137.555C110.953 137.555 110.521 137.685 110.172 137.945C109.823 138.206 109.648 138.521 109.648 138.891H108.195C108.195 138.469 108.344 138.062 108.641 137.672C108.943 137.276 109.349 136.964 109.859 136.734C110.375 136.505 110.94 136.391 111.555 136.391C112.529 136.391 113.292 136.635 113.844 137.125C114.396 137.609 114.682 138.279 114.703 139.133V143.023C114.703 143.799 114.802 144.417 115 144.875V145H113.484ZM111.086 143.898C111.539 143.898 111.969 143.781 112.375 143.547C112.781 143.312 113.076 143.008 113.258 142.633V140.898H112.125C110.354 140.898 109.469 141.417 109.469 142.453C109.469 142.906 109.62 143.26 109.922 143.516C110.224 143.771 110.612 143.898 111.086 143.898ZM118.93 134.5V136.547H120.508V137.664H118.93V142.906C118.93 143.245 119 143.5 119.141 143.672C119.281 143.839 119.521 143.922 119.859 143.922C120.026 143.922 120.255 143.891 120.547 143.828V145C120.167 145.104 119.797 145.156 119.438 145.156C118.792 145.156 118.305 144.961 117.977 144.57C117.648 144.18 117.484 143.625 117.484 142.906V137.664H115.945V136.547H117.484V134.5H118.93ZM125.711 145.156C124.565 145.156 123.633 144.781 122.914 144.031C122.195 143.276 121.836 142.268 121.836 141.008V140.742C121.836 139.904 121.995 139.156 122.312 138.5C122.635 137.839 123.083 137.323 123.656 136.953C124.234 136.578 124.859 136.391 125.531 136.391C126.63 136.391 127.484 136.753 128.094 137.477C128.703 138.201 129.008 139.237 129.008 140.586V141.188H123.281C123.302 142.021 123.544 142.695 124.008 143.211C124.477 143.721 125.07 143.977 125.789 143.977C126.299 143.977 126.732 143.872 127.086 143.664C127.44 143.456 127.75 143.18 128.016 142.836L128.898 143.523C128.19 144.612 127.128 145.156 125.711 145.156ZM125.531 137.578C124.948 137.578 124.458 137.792 124.062 138.219C123.667 138.641 123.422 139.234 123.328 140H127.562V139.891C127.521 139.156 127.323 138.589 126.969 138.188C126.615 137.781 126.135 137.578 125.531 137.578ZM134.773 137.844C134.555 137.807 134.318 137.789 134.062 137.789C133.115 137.789 132.471 138.193 132.133 139V145H130.688V136.547H132.094L132.117 137.523C132.591 136.768 133.263 136.391 134.133 136.391C134.414 136.391 134.628 136.427 134.773 136.5V137.844ZM137.68 145H136.234V136.547H137.68V145ZM136.117 134.305C136.117 134.07 136.188 133.872 136.328 133.711C136.474 133.549 136.688 133.469 136.969 133.469C137.25 133.469 137.464 133.549 137.609 133.711C137.755 133.872 137.828 134.07 137.828 134.305C137.828 134.539 137.755 134.734 137.609 134.891C137.464 135.047 137.25 135.125 136.969 135.125C136.688 135.125 136.474 135.047 136.328 134.891C136.188 134.734 136.117 134.539 136.117 134.305ZM145.219 145C145.135 144.833 145.068 144.536 145.016 144.109C144.344 144.807 143.542 145.156 142.609 145.156C141.776 145.156 141.091 144.922 140.555 144.453C140.023 143.979 139.758 143.38 139.758 142.656C139.758 141.776 140.091 141.094 140.758 140.609C141.43 140.12 142.372 139.875 143.586 139.875H144.992V139.211C144.992 138.706 144.841 138.305 144.539 138.008C144.237 137.706 143.792 137.555 143.203 137.555C142.688 137.555 142.255 137.685 141.906 137.945C141.557 138.206 141.383 138.521 141.383 138.891H139.93C139.93 138.469 140.078 138.062 140.375 137.672C140.677 137.276 141.083 136.964 141.594 136.734C142.109 136.505 142.674 136.391 143.289 136.391C144.263 136.391 145.026 136.635 145.578 137.125C146.13 137.609 146.417 138.279 146.438 139.133V143.023C146.438 143.799 146.536 144.417 146.734 144.875V145H145.219ZM142.82 143.898C143.273 143.898 143.703 143.781 144.109 143.547C144.516 143.312 144.81 143.008 144.992 142.633V140.898H143.859C142.089 140.898 141.203 141.417 141.203 142.453C141.203 142.906 141.354 143.26 141.656 143.516C141.958 143.771 142.346 143.898 142.82 143.898ZM153.625 142.758C153.625 142.367 153.477 142.065 153.18 141.852C152.888 141.633 152.375 141.445 151.641 141.289C150.911 141.133 150.331 140.945 149.898 140.727C149.471 140.508 149.154 140.247 148.945 139.945C148.742 139.643 148.641 139.284 148.641 138.867C148.641 138.174 148.932 137.589 149.516 137.109C150.104 136.63 150.854 136.391 151.766 136.391C152.724 136.391 153.5 136.638 154.094 137.133C154.693 137.628 154.992 138.26 154.992 139.031H153.539C153.539 138.635 153.37 138.294 153.031 138.008C152.698 137.721 152.276 137.578 151.766 137.578C151.24 137.578 150.828 137.693 150.531 137.922C150.234 138.151 150.086 138.451 150.086 138.82C150.086 139.169 150.224 139.432 150.5 139.609C150.776 139.786 151.273 139.956 151.992 140.117C152.716 140.279 153.302 140.471 153.75 140.695C154.198 140.919 154.529 141.19 154.742 141.508C154.961 141.82 155.07 142.203 155.07 142.656C155.07 143.411 154.768 144.018 154.164 144.477C153.56 144.93 152.776 145.156 151.812 145.156C151.135 145.156 150.536 145.036 150.016 144.797C149.495 144.557 149.086 144.224 148.789 143.797C148.497 143.365 148.352 142.898 148.352 142.398H149.797C149.823 142.883 150.016 143.268 150.375 143.555C150.74 143.836 151.219 143.977 151.812 143.977C152.359 143.977 152.797 143.867 153.125 143.648C153.458 143.424 153.625 143.128 153.625 142.758Z" fill="#322153"/>
<rect x="76" y="41" width="40" height="54" rx="4" stroke="#322153" stroke-width="2"/>
<path d="M86 37C86 34.2386 88.2386 32 91 32H101C103.761 32 106 34.2386 106 37V42H86V37Z" fill="#34CB79"/>
<path d="M87 37C87 34.7909 88.7909 33 91 33H101C103.209 33 105 34.7909 105 37V41H87V37Z" stroke="#322153" stroke-width="2"/>
<path d="M87 70.8261L96 54V64.1739H105L96 81V70.8261H87Z" fill="#34CB79"/>
<path d="M87 70.8261L96 54V64.1739H105L96 81V70.8261H87Z" stroke="#322153" stroke-width="2" stroke-linejoin="round"/>
<line x1="76" y1="46" x2="117" y2="46" stroke="#322153" stroke-width="2"/>
<line x1="76" y1="90" x2="117" y2="90" stroke="#322153" stroke-width="2"/>
</svg>
