<svg width="324" height="130" viewBox="0 0 324 130" fill="none" xmlns="http://www.w3.org/2000/svg">
<path d="M22.377 112.475C22.1777 115.229 21.1582 117.396 19.3184 118.979C17.4902 120.561 15.0762 121.352 12.0762 121.352C8.79492 121.352 6.21094 120.25 4.32422 118.047C2.44922 115.832 1.51172 112.797 1.51172 108.941V107.377C1.51172 104.916 1.94531 102.748 2.8125 100.873C3.67969 98.998 4.91602 97.5625 6.52148 96.5664C8.13867 95.5586 10.0137 95.0547 12.1465 95.0547C15.0996 95.0547 17.4785 95.8457 19.2832 97.4277C21.0879 99.0098 22.1309 101.23 22.4121 104.09H17.1387C17.0098 102.438 16.5469 101.242 15.75 100.504C14.9648 99.7539 13.7637 99.3789 12.1465 99.3789C10.3887 99.3789 9.07031 100.012 8.19141 101.277C7.32422 102.531 6.87891 104.482 6.85547 107.131V109.064C6.85547 111.83 7.27148 113.852 8.10352 115.129C8.94727 116.406 10.2715 117.045 12.0762 117.045C13.7051 117.045 14.918 116.676 15.7148 115.938C16.5234 115.188 16.9863 114.033 17.1035 112.475H22.377ZM36.5273 121C36.293 120.543 36.123 119.975 36.0176 119.295C34.7871 120.666 33.1875 121.352 31.2188 121.352C29.3555 121.352 27.8086 120.812 26.5781 119.734C25.3594 118.656 24.75 117.297 24.75 115.656C24.75 113.641 25.4941 112.094 26.9824 111.016C28.4824 109.938 30.6445 109.393 33.4688 109.381H35.8066V108.291C35.8066 107.412 35.5781 106.709 35.1211 106.182C34.6758 105.654 33.9668 105.391 32.9941 105.391C32.1387 105.391 31.4648 105.596 30.9727 106.006C30.4922 106.416 30.252 106.979 30.252 107.693H25.1719C25.1719 106.592 25.5117 105.572 26.1914 104.635C26.8711 103.697 27.832 102.965 29.0742 102.438C30.3164 101.898 31.7109 101.629 33.2578 101.629C35.6016 101.629 37.459 102.221 38.8301 103.404C40.2129 104.576 40.9043 106.229 40.9043 108.361V116.605C40.916 118.41 41.168 119.775 41.6602 120.701V121H36.5273ZM32.3262 117.467C33.0762 117.467 33.7676 117.303 34.4004 116.975C35.0332 116.635 35.502 116.184 35.8066 115.621V112.352H33.9082C31.3652 112.352 30.0117 113.23 29.8477 114.988L29.8301 115.287C29.8301 115.92 30.0527 116.441 30.498 116.852C30.9434 117.262 31.5527 117.467 32.3262 117.467ZM44.0156 111.35C44.0156 108.385 44.6777 106.023 46.002 104.266C47.3379 102.508 49.1602 101.629 51.4688 101.629C53.3203 101.629 54.8496 102.32 56.0566 103.703V94H61.1543V121H56.5664L56.3203 118.979C55.0547 120.561 53.4258 121.352 51.4336 121.352C49.1953 121.352 47.3965 120.473 46.0371 118.715C44.6895 116.945 44.0156 114.49 44.0156 111.35ZM49.0957 111.719C49.0957 113.5 49.4062 114.865 50.0273 115.814C50.6484 116.764 51.5508 117.238 52.7344 117.238C54.3047 117.238 55.4121 116.576 56.0566 115.252V107.746C55.4238 106.422 54.3281 105.76 52.7695 105.76C50.3203 105.76 49.0957 107.746 49.0957 111.719ZM76.1133 121C75.8789 120.543 75.709 119.975 75.6035 119.295C74.373 120.666 72.7734 121.352 70.8047 121.352C68.9414 121.352 67.3945 120.812 66.1641 119.734C64.9453 118.656 64.3359 117.297 64.3359 115.656C64.3359 113.641 65.0801 112.094 66.5684 111.016C68.0684 109.938 70.2305 109.393 73.0547 109.381H75.3926V108.291C75.3926 107.412 75.1641 106.709 74.707 106.182C74.2617 105.654 73.5527 105.391 72.5801 105.391C71.7246 105.391 71.0508 105.596 70.5586 106.006C70.0781 106.416 69.8379 106.979 69.8379 107.693H64.7578C64.7578 106.592 65.0977 105.572 65.7773 104.635C66.457 103.697 67.418 102.965 68.6602 102.438C69.9023 101.898 71.2969 101.629 72.8438 101.629C75.1875 101.629 77.0449 102.221 78.416 103.404C79.7988 104.576 80.4902 106.229 80.4902 108.361V116.605C80.502 118.41 80.7539 119.775 81.2461 120.701V121H76.1133ZM71.9121 117.467C72.6621 117.467 73.3535 117.303 73.9863 116.975C74.6191 116.635 75.0879 116.184 75.3926 115.621V112.352H73.4941C70.9512 112.352 69.5977 113.23 69.4336 114.988L69.416 115.287C69.416 115.92 69.6387 116.441 70.084 116.852C70.5293 117.262 71.1387 117.467 71.9121 117.467ZM94.6934 115.744C94.6934 115.123 94.3828 114.637 93.7617 114.285C93.1523 113.922 92.168 113.6 90.8086 113.318C86.2852 112.369 84.0234 110.447 84.0234 107.553C84.0234 105.865 84.7207 104.459 86.1152 103.334C87.5215 102.197 89.3555 101.629 91.6172 101.629C94.0312 101.629 95.959 102.197 97.4004 103.334C98.8535 104.471 99.5801 105.947 99.5801 107.764H94.5C94.5 107.037 94.2656 106.439 93.7969 105.971C93.3281 105.49 92.5957 105.25 91.5996 105.25C90.7441 105.25 90.082 105.443 89.6133 105.83C89.1445 106.217 88.9102 106.709 88.9102 107.307C88.9102 107.869 89.1738 108.326 89.7012 108.678C90.2402 109.018 91.1426 109.316 92.4082 109.574C93.6738 109.82 94.7402 110.102 95.6074 110.418C98.291 111.402 99.6328 113.107 99.6328 115.533C99.6328 117.268 98.8887 118.674 97.4004 119.752C95.9121 120.818 93.9902 121.352 91.6348 121.352C90.041 121.352 88.623 121.07 87.3809 120.508C86.1504 119.934 85.1836 119.154 84.4805 118.17C83.7773 117.174 83.4258 116.102 83.4258 114.953H88.2422C88.2891 115.855 88.623 116.547 89.2441 117.027C89.8652 117.508 90.6973 117.748 91.7402 117.748C92.7129 117.748 93.4453 117.566 93.9375 117.203C94.4414 116.828 94.6934 116.342 94.6934 115.744ZM109.002 97.3047V101.98H112.254V105.707H109.002V115.199C109.002 115.902 109.137 116.406 109.406 116.711C109.676 117.016 110.191 117.168 110.953 117.168C111.516 117.168 112.014 117.127 112.447 117.045V120.895C111.451 121.199 110.426 121.352 109.371 121.352C105.809 121.352 103.992 119.553 103.922 115.955V105.707H101.145V101.98H103.922V97.3047H109.002ZM125.771 106.744C125.08 106.65 124.471 106.604 123.943 106.604C122.021 106.604 120.762 107.254 120.164 108.555V121H115.084V101.98H119.883L120.023 104.248C121.043 102.502 122.455 101.629 124.26 101.629C124.822 101.629 125.35 101.705 125.842 101.857L125.771 106.744ZM126.809 111.314C126.809 109.428 127.172 107.746 127.898 106.27C128.625 104.793 129.668 103.65 131.027 102.842C132.398 102.033 133.986 101.629 135.791 101.629C138.357 101.629 140.449 102.414 142.066 103.984C143.695 105.555 144.604 107.688 144.791 110.383L144.826 111.684C144.826 114.602 144.012 116.945 142.383 118.715C140.754 120.473 138.568 121.352 135.826 121.352C133.084 121.352 130.893 120.473 129.252 118.715C127.623 116.957 126.809 114.566 126.809 111.543V111.314ZM131.889 111.684C131.889 113.488 132.229 114.871 132.908 115.832C133.588 116.781 134.561 117.256 135.826 117.256C137.057 117.256 138.018 116.787 138.709 115.85C139.4 114.9 139.746 113.389 139.746 111.314C139.746 109.545 139.4 108.174 138.709 107.201C138.018 106.229 137.045 105.742 135.791 105.742C134.549 105.742 133.588 106.229 132.908 107.201C132.229 108.162 131.889 109.656 131.889 111.684ZM164.83 117.256C165.768 117.256 166.529 116.998 167.115 116.482C167.701 115.967 168.006 115.281 168.029 114.426H172.793C172.781 115.715 172.43 116.898 171.738 117.977C171.047 119.043 170.098 119.875 168.891 120.473C167.695 121.059 166.371 121.352 164.918 121.352C162.199 121.352 160.055 120.49 158.484 118.768C156.914 117.033 156.129 114.643 156.129 111.596V111.262C156.129 108.332 156.908 105.994 158.467 104.248C160.025 102.502 162.164 101.629 164.883 101.629C167.262 101.629 169.166 102.309 170.596 103.668C172.037 105.016 172.77 106.814 172.793 109.064H168.029C168.006 108.08 167.701 107.283 167.115 106.674C166.529 106.053 165.756 105.742 164.795 105.742C163.611 105.742 162.715 106.176 162.105 107.043C161.508 107.898 161.209 109.293 161.209 111.227V111.754C161.209 113.711 161.508 115.117 162.105 115.973C162.703 116.828 163.611 117.256 164.83 117.256ZM174.902 111.314C174.902 109.428 175.266 107.746 175.992 106.27C176.719 104.793 177.762 103.65 179.121 102.842C180.492 102.033 182.08 101.629 183.885 101.629C186.451 101.629 188.543 102.414 190.16 103.984C191.789 105.555 192.697 107.688 192.885 110.383L192.92 111.684C192.92 114.602 192.105 116.945 190.477 118.715C188.848 120.473 186.662 121.352 183.92 121.352C181.178 121.352 178.986 120.473 177.346 118.715C175.717 116.957 174.902 114.566 174.902 111.543V111.314ZM179.982 111.684C179.982 113.488 180.322 114.871 181.002 115.832C181.682 116.781 182.654 117.256 183.92 117.256C185.15 117.256 186.111 116.787 186.803 115.85C187.494 114.9 187.84 113.389 187.84 111.314C187.84 109.545 187.494 108.174 186.803 107.201C186.111 106.229 185.139 105.742 183.885 105.742C182.643 105.742 181.682 106.229 181.002 107.201C180.322 108.162 179.982 109.656 179.982 111.684ZM200.725 101.98L200.883 104.178C202.242 102.479 204.064 101.629 206.35 101.629C208.365 101.629 209.865 102.221 210.85 103.404C211.834 104.588 212.338 106.357 212.361 108.713V121H207.281V108.836C207.281 107.758 207.047 106.979 206.578 106.498C206.109 106.006 205.33 105.76 204.24 105.76C202.811 105.76 201.738 106.369 201.023 107.588V121H195.943V101.98H200.725ZM224.139 117.256C225.076 117.256 225.838 116.998 226.424 116.482C227.01 115.967 227.314 115.281 227.338 114.426H232.102C232.09 115.715 231.738 116.898 231.047 117.977C230.355 119.043 229.406 119.875 228.199 120.473C227.004 121.059 225.68 121.352 224.227 121.352C221.508 121.352 219.363 120.49 217.793 118.768C216.223 117.033 215.438 114.643 215.438 111.596V111.262C215.438 108.332 216.217 105.994 217.775 104.248C219.334 102.502 221.473 101.629 224.191 101.629C226.57 101.629 228.475 102.309 229.904 103.668C231.346 105.016 232.078 106.814 232.102 109.064H227.338C227.314 108.08 227.01 107.283 226.424 106.674C225.838 106.053 225.064 105.742 224.104 105.742C222.92 105.742 222.023 106.176 221.414 107.043C220.816 107.898 220.518 109.293 220.518 111.227V111.754C220.518 113.711 220.816 115.117 221.414 115.973C222.012 116.828 222.92 117.256 224.139 117.256ZM240.363 121H235.266V94H240.363V121ZM255.955 119.066C254.701 120.59 252.967 121.352 250.752 121.352C248.713 121.352 247.154 120.766 246.076 119.594C245.01 118.422 244.465 116.705 244.441 114.443V101.98H249.521V114.268C249.521 116.248 250.424 117.238 252.229 117.238C253.951 117.238 255.135 116.641 255.779 115.445V101.98H260.877V121H256.096L255.955 119.066ZM270.193 121H265.113V101.98H270.193V121ZM268.699 94.2637H274.236L269.367 99.7129H265.236L268.699 94.2637ZM273.797 111.35C273.797 108.385 274.459 106.023 275.783 104.266C277.119 102.508 278.941 101.629 281.25 101.629C283.102 101.629 284.631 102.32 285.838 103.703V94H290.936V121H286.348L286.102 118.979C284.836 120.561 283.207 121.352 281.215 121.352C278.977 121.352 277.178 120.473 275.818 118.715C274.471 116.945 273.797 114.49 273.797 111.35ZM278.877 111.719C278.877 113.5 279.188 114.865 279.809 115.814C280.43 116.764 281.332 117.238 282.516 117.238C284.086 117.238 285.193 116.576 285.838 115.252V107.746C285.205 106.422 284.109 105.76 282.551 105.76C280.102 105.76 278.877 107.746 278.877 111.719ZM294.082 111.314C294.082 109.428 294.445 107.746 295.172 106.27C295.898 104.793 296.941 103.65 298.301 102.842C299.672 102.033 301.26 101.629 303.064 101.629C305.631 101.629 307.723 102.414 309.34 103.984C310.969 105.555 311.877 107.688 312.064 110.383L312.1 111.684C312.1 114.602 311.285 116.945 309.656 118.715C308.027 120.473 305.842 121.352 303.1 121.352C300.357 121.352 298.166 120.473 296.525 118.715C294.896 116.957 294.082 114.566 294.082 111.543V111.314ZM299.162 111.684C299.162 113.488 299.502 114.871 300.182 115.832C300.861 116.781 301.834 117.256 303.1 117.256C304.33 117.256 305.291 116.787 305.982 115.85C306.674 114.9 307.02 113.389 307.02 111.314C307.02 109.545 306.674 108.174 305.982 107.201C305.291 106.229 304.318 105.742 303.064 105.742C301.822 105.742 300.861 106.229 300.182 107.201C299.502 108.162 299.162 109.656 299.162 111.684ZM320.396 113.143H316.178L315.58 95.4062H320.994L320.396 113.143ZM318.287 115.92C319.143 115.92 319.828 116.172 320.344 116.676C320.871 117.18 321.135 117.824 321.135 118.609C321.135 119.383 320.871 120.021 320.344 120.525C319.828 121.029 319.143 121.281 318.287 121.281C317.443 121.281 316.758 121.029 316.23 120.525C315.715 120.021 315.457 119.383 315.457 118.609C315.457 117.836 315.715 117.197 316.23 116.693C316.758 116.178 317.443 115.92 318.287 115.92Z" fill="#F0F0F5"/>
<path d="M188.667 29.5466V32C188.663 37.7504 186.801 43.3458 183.358 47.9515C179.915 52.5572 175.075 55.9266 169.561 57.557C164.047 59.1875 158.153 58.9917 152.759 56.9989C147.365 55.006 142.759 51.3229 139.629 46.4988C136.499 41.6747 135.013 35.9682 135.391 30.2302C135.77 24.4922 137.993 19.0302 141.729 14.6588C145.465 10.2875 150.514 7.241 156.123 5.97371C161.732 4.70641 167.601 5.28622 172.853 7.62665" stroke="#34CB79" stroke-width="4" stroke-linecap="round" stroke-linejoin="round"/>
<path d="M188.667 10.6667L162 37.36L154 29.36" stroke="#34CB79" stroke-width="4" stroke-linecap="round" stroke-linejoin="round"/>
</svg>
