<svg width="192" height="184" viewBox="0 0 192 184" fill="none" xmlns="http://www.w3.org/2000/svg">
<rect width="192" height="184" rx="8" fill="#E1FAEC"/>
<path d="M48.2969 139.68C48.2969 140.794 48.1094 141.768 47.7344 142.602C47.3594 143.43 46.8281 144.062 46.1406 144.5C45.4531 144.938 44.651 145.156 43.7344 145.156C42.8385 145.156 42.0443 144.938 41.3516 144.5C40.6589 144.057 40.1198 143.43 39.7344 142.617C39.3542 141.799 39.1589 140.854 39.1484 139.781V138.961C39.1484 137.867 39.3385 136.901 39.7188 136.062C40.099 135.224 40.6354 134.583 41.3281 134.141C42.026 133.693 42.8229 133.469 43.7188 133.469C44.6302 133.469 45.4323 133.69 46.125 134.133C46.8229 134.57 47.3594 135.208 47.7344 136.047C48.1094 136.88 48.2969 137.852 48.2969 138.961V139.68ZM46.8047 138.945C46.8047 137.596 46.5339 136.562 45.9922 135.844C45.4505 135.12 44.6927 134.758 43.7188 134.758C42.7708 134.758 42.0234 135.12 41.4766 135.844C40.9349 136.562 40.6562 137.562 40.6406 138.844V139.68C40.6406 140.987 40.9141 142.016 41.4609 142.766C42.013 143.51 42.7708 143.883 43.7344 143.883C44.7031 143.883 45.4531 143.531 45.9844 142.828C46.5156 142.12 46.7891 141.107 46.8047 139.789V138.945ZM44.4531 130.562H46.2031L44.1094 132.859H42.9453L44.4531 130.562ZM51.8906 145H50.4453V133H51.8906V145ZM57.7188 145.156C56.5729 145.156 55.6406 144.781 54.9219 144.031C54.2031 143.276 53.8438 142.268 53.8438 141.008V140.742C53.8438 139.904 54.0026 139.156 54.3203 138.5C54.6432 137.839 55.0911 137.323 55.6641 136.953C56.2422 136.578 56.8672 136.391 57.5391 136.391C58.638 136.391 59.4922 136.753 60.1016 137.477C60.7109 138.201 61.0156 139.237 61.0156 140.586V141.188H55.2891C55.3099 142.021 55.5521 142.695 56.0156 143.211C56.4844 143.721 57.0781 143.977 57.7969 143.977C58.3073 143.977 58.7396 143.872 59.0938 143.664C59.4479 143.456 59.7578 143.18 60.0234 142.836L60.9062 143.523C60.1979 144.612 59.1354 145.156 57.7188 145.156ZM57.5391 137.578C56.9557 137.578 56.4661 137.792 56.0703 138.219C55.6745 138.641 55.4297 139.234 55.3359 140H59.5703V139.891C59.5286 139.156 59.3307 138.589 58.9766 138.188C58.6224 137.781 58.1432 137.578 57.5391 137.578ZM62.3125 140.695C62.3125 139.867 62.474 139.122 62.7969 138.461C63.125 137.799 63.5781 137.289 64.1562 136.93C64.7396 136.57 65.4036 136.391 66.1484 136.391C67.2995 136.391 68.2292 136.789 68.9375 137.586C69.651 138.383 70.0078 139.443 70.0078 140.766V140.867C70.0078 141.69 69.849 142.43 69.5312 143.086C69.2188 143.737 68.7682 144.245 68.1797 144.609C67.5964 144.974 66.9245 145.156 66.1641 145.156C65.0182 145.156 64.0885 144.758 63.375 143.961C62.6667 143.164 62.3125 142.109 62.3125 140.797V140.695ZM63.7656 140.867C63.7656 141.805 63.9818 142.557 64.4141 143.125C64.8516 143.693 65.4349 143.977 66.1641 143.977C66.8984 143.977 67.4818 143.69 67.9141 143.117C68.3464 142.539 68.5625 141.732 68.5625 140.695C68.5625 139.768 68.3411 139.018 67.8984 138.445C67.4609 137.867 66.8776 137.578 66.1484 137.578C65.4349 137.578 64.8594 137.862 64.4219 138.43C63.9844 138.997 63.7656 139.81 63.7656 140.867ZM75.4375 140.703C75.4375 139.406 75.7448 138.365 76.3594 137.578C76.974 136.786 77.7786 136.391 78.7734 136.391C79.763 136.391 80.5469 136.729 81.125 137.406V133H82.5703V145H81.2422L81.1719 144.094C80.5938 144.802 79.7891 145.156 78.7578 145.156C77.7786 145.156 76.9792 144.755 76.3594 143.953C75.7448 143.151 75.4375 142.104 75.4375 140.812V140.703ZM76.8828 140.867C76.8828 141.826 77.0807 142.576 77.4766 143.117C77.8724 143.659 78.4193 143.93 79.1172 143.93C80.0339 143.93 80.7031 143.518 81.125 142.695V138.812C80.6927 138.016 80.0286 137.617 79.1328 137.617C78.4245 137.617 77.8724 137.891 77.4766 138.438C77.0807 138.984 76.8828 139.794 76.8828 140.867ZM88.3281 145.156C87.1823 145.156 86.25 144.781 85.5312 144.031C84.8125 143.276 84.4531 142.268 84.4531 141.008V140.742C84.4531 139.904 84.612 139.156 84.9297 138.5C85.2526 137.839 85.7005 137.323 86.2734 136.953C86.8516 136.578 87.4766 136.391 88.1484 136.391C89.2474 136.391 90.1016 136.753 90.7109 137.477C91.3203 138.201 91.625 139.237 91.625 140.586V141.188H85.8984C85.9193 142.021 86.1615 142.695 86.625 143.211C87.0938 143.721 87.6875 143.977 88.4062 143.977C88.9167 143.977 89.349 143.872 89.7031 143.664C90.0573 143.456 90.3672 143.18 90.6328 142.836L91.5156 143.523C90.8073 144.612 89.7448 145.156 88.3281 145.156ZM88.1484 137.578C87.5651 137.578 87.0755 137.792 86.6797 138.219C86.2839 138.641 86.0391 139.234 85.9453 140H90.1797V139.891C90.138 139.156 89.9401 138.589 89.5859 138.188C89.2318 137.781 88.7526 137.578 88.1484 137.578ZM105.867 141.391C105.727 142.594 105.281 143.523 104.531 144.18C103.786 144.831 102.794 145.156 101.555 145.156C100.211 145.156 99.1328 144.674 98.3203 143.711C97.513 142.747 97.1094 141.458 97.1094 139.844V138.75C97.1094 137.693 97.2969 136.763 97.6719 135.961C98.0521 135.159 98.5885 134.544 99.2812 134.117C99.974 133.685 100.776 133.469 101.688 133.469C102.896 133.469 103.865 133.807 104.594 134.484C105.323 135.156 105.747 136.089 105.867 137.281H104.359C104.229 136.375 103.945 135.719 103.508 135.312C103.076 134.906 102.469 134.703 101.688 134.703C100.729 134.703 99.9766 135.057 99.4297 135.766C98.888 136.474 98.6172 137.482 98.6172 138.789V139.891C98.6172 141.125 98.875 142.107 99.3906 142.836C99.9062 143.565 100.628 143.93 101.555 143.93C102.388 143.93 103.026 143.742 103.469 143.367C103.917 142.987 104.214 142.328 104.359 141.391H105.867ZM107.312 140.695C107.312 139.867 107.474 139.122 107.797 138.461C108.125 137.799 108.578 137.289 109.156 136.93C109.74 136.57 110.404 136.391 111.148 136.391C112.299 136.391 113.229 136.789 113.938 137.586C114.651 138.383 115.008 139.443 115.008 140.766V140.867C115.008 141.69 114.849 142.43 114.531 143.086C114.219 143.737 113.768 144.245 113.18 144.609C112.596 144.974 111.924 145.156 111.164 145.156C110.018 145.156 109.089 144.758 108.375 143.961C107.667 143.164 107.312 142.109 107.312 140.797V140.695ZM108.766 140.867C108.766 141.805 108.982 142.557 109.414 143.125C109.852 143.693 110.435 143.977 111.164 143.977C111.898 143.977 112.482 143.69 112.914 143.117C113.346 142.539 113.562 141.732 113.562 140.695C113.562 139.768 113.341 139.018 112.898 138.445C112.461 137.867 111.878 137.578 111.148 137.578C110.435 137.578 109.859 137.862 109.422 138.43C108.984 138.997 108.766 139.81 108.766 140.867ZM118.055 143.82H123V145H116.289V143.938L120.953 137.742H116.359V136.547H122.766V137.57L118.055 143.82ZM126.203 145H124.758V136.547H126.203V145ZM124.641 134.305C124.641 134.07 124.711 133.872 124.852 133.711C124.997 133.549 125.211 133.469 125.492 133.469C125.773 133.469 125.987 133.549 126.133 133.711C126.279 133.872 126.352 134.07 126.352 134.305C126.352 134.539 126.279 134.734 126.133 134.891C125.987 135.047 125.773 135.125 125.492 135.125C125.211 135.125 124.997 135.047 124.852 134.891C124.711 134.734 124.641 134.539 124.641 134.305ZM129.891 136.547L129.938 137.609C130.583 136.797 131.427 136.391 132.469 136.391C134.255 136.391 135.156 137.398 135.172 139.414V145H133.727V139.406C133.721 138.797 133.581 138.346 133.305 138.055C133.034 137.763 132.609 137.617 132.031 137.617C131.562 137.617 131.151 137.742 130.797 137.992C130.443 138.242 130.167 138.57 129.969 138.977V145H128.523V136.547H129.891ZM138.797 137.57C139.438 136.784 140.271 136.391 141.297 136.391C143.083 136.391 143.984 137.398 144 139.414V145H142.555V139.406C142.549 138.797 142.409 138.346 142.133 138.055C141.862 137.763 141.438 137.617 140.859 137.617C140.391 137.617 139.979 137.742 139.625 137.992C139.271 138.242 138.995 138.57 138.797 138.977V145H137.352V133H138.797V137.57ZM151.383 145C151.299 144.833 151.232 144.536 151.18 144.109C150.508 144.807 149.706 145.156 148.773 145.156C147.94 145.156 147.255 144.922 146.719 144.453C146.188 143.979 145.922 143.38 145.922 142.656C145.922 141.776 146.255 141.094 146.922 140.609C147.594 140.12 148.536 139.875 149.75 139.875H151.156V139.211C151.156 138.706 151.005 138.305 150.703 138.008C150.401 137.706 149.956 137.555 149.367 137.555C148.852 137.555 148.419 137.685 148.07 137.945C147.721 138.206 147.547 138.521 147.547 138.891H146.094C146.094 138.469 146.242 138.062 146.539 137.672C146.841 137.276 147.247 136.964 147.758 136.734C148.273 136.505 148.839 136.391 149.453 136.391C150.427 136.391 151.19 136.635 151.742 137.125C152.294 137.609 152.581 138.279 152.602 139.133V143.023C152.602 143.799 152.701 144.417 152.898 144.875V145H151.383ZM148.984 143.898C149.438 143.898 149.867 143.781 150.273 143.547C150.68 143.312 150.974 143.008 151.156 142.633V140.898H150.023C148.253 140.898 147.367 141.417 147.367 142.453C147.367 142.906 147.518 143.26 147.82 143.516C148.122 143.771 148.51 143.898 148.984 143.898Z" fill="#322153"/>
<path d="M122 60V80H90V60H122ZM111.5 71.4453C111.5 70.5091 111.057 69.6089 110.245 68.8818L106 64.5454L102.255 68.8818C101.443 69.6089 101 70.5091 101 71.4453C101 73.6634 102.045 76 105.048 76H106.5C108.002 76 109.582 75.0088 110.566 74.2817C111.55 73.5546 111.5 72.5546 111.5 71.4453Z" fill="#34CB79"/>
<path d="M89.8064 54.7097V62.9057C87.1845 62.5549 86.8437 60.9032 83.6028 60.9032C79.9899 60.9032 79.9899 62.9677 76.377 62.9677C73.187 62.9677 72.8155 61.3574 70.2863 60.9859C70.4415 58.8594 70.8024 56.7535 71.3599 54.7097H89.8064Z" fill="#34CB79"/>
<path d="M89.8065 84.6452V86.7097H69.6875C69.7187 86.6376 69.7495 86.565 69.7807 86.503L70.5237 85.0272C71.6593 82.7354 72.2581 80.2167 72.2581 77.6568C72.2581 76.1804 72.0514 74.7147 71.6699 73.2903H71.6593C71.6593 73.2389 71.6386 73.187 71.6285 73.1356L71.4839 72.6401C70.937 70.7198 70.5549 68.7586 70.245 65.1043H70.2555C72.8155 65.4763 73.1769 67.0968 76.377 67.0968C79.9899 67.0968 79.9899 65.0323 83.6028 65.0323C86.8438 65.0323 87.1845 66.684 89.8065 67.0348V84.6452Z" fill="#34CB79"/>
<mask id="path-6-inside-1" fill="white">
<path d="M120.981 48.9289L115.613 44.9032V40.2581H117.677V35.0968C117.677 33.3896 116.288 32 114.581 32H98.0645C96.3574 32 94.9677 33.3896 94.9677 35.0968V40.2581H97.0323V44.9032L91.6643 48.9289C91.4289 49.1053 91.2072 49.2964 90.9975 49.499C90.2938 47.9007 89.4677 46.3558 88.5328 44.8856L86.7097 42.0222V40.2581H88.7742V35.0968C88.7742 33.3896 87.3846 32 85.6774 32H77.4194C75.7122 32 74.3226 33.3896 74.3226 35.0968V40.2581H76.3871V42.0222L74.561 44.8906C71.0287 50.4425 69.1613 56.8558 69.1613 63.4355C69.1613 66.6457 69.6084 69.8382 70.4909 72.9259L70.6321 73.4204C71.0267 74.8004 71.2258 76.2273 71.2258 77.6608C71.2258 80.0444 70.6623 82.4309 69.5958 84.5635L68.8548 86.0469C68.38 86.9955 68.129 88.06 68.129 89.122C68.129 92.9148 71.2142 96 75.0071 96H75.9597C77.1779 96 78.3216 95.5262 79.1825 94.6653C79.6522 94.1946 80.2777 93.9355 80.9435 93.9355H82.1532C82.819 93.9355 83.4446 94.1946 83.9153 94.6653C84.7752 95.5262 85.9188 96 87.1371 96H88.0897C89.4894 96 90.8327 95.5539 91.9723 94.7697C93.124 95.5459 94.5096 96 96 96H116.645C120.63 96 123.871 92.7576 123.871 88.7742V54.7097C123.871 52.4471 122.79 50.2863 120.981 48.9289ZM121.806 56.7742V87.7419H90.8387V85.6774V83.6129V54.7097C90.8387 53.9914 90.9985 53.2903 91.2817 52.6452H121.362C121.647 53.2903 121.806 53.9914 121.806 54.7097V56.7742ZM71.2258 63.4355C71.2258 63.0625 71.2525 62.692 71.2651 62.3206C71.6099 62.4662 71.9224 62.6426 72.256 62.8327C73.2147 63.3795 74.3009 63.999 76.38 63.999C78.4597 63.999 79.5459 63.3785 80.5045 62.8306C81.3463 62.3503 82.0726 61.9355 83.6048 61.9355C85.1386 61.9355 85.8654 62.3503 86.7077 62.8327C87.2772 63.1578 87.9093 63.5146 88.7732 63.748V65.7011C88.4078 65.5514 88.0806 65.3679 87.7303 65.1683C86.7737 64.6205 85.6865 64 83.6048 64C81.5247 64 80.4385 64.6205 79.4798 65.1683C78.6386 65.6497 77.9128 66.0645 76.38 66.0645C74.8478 66.0645 74.1215 65.6507 73.2777 65.1694C72.7172 64.8498 72.0958 64.5005 71.2545 64.2671C71.2475 63.9899 71.2258 63.7132 71.2258 63.4355ZM97.0323 35.0968C97.0323 34.5282 97.496 34.0645 98.0645 34.0645H114.581C115.149 34.0645 115.613 34.5282 115.613 35.0968V38.1935H97.0323V35.0968ZM113.548 40.2581V44.3871H99.0968V40.2581H113.548ZM98.4083 46.4516H114.236L119.741 50.5806H92.9032L98.4083 46.4516ZM76.3871 35.0968C76.3871 34.5282 76.8508 34.0645 77.4194 34.0645H85.6774C86.246 34.0645 86.7097 34.5282 86.7097 35.0968V38.1935H76.3871V35.0968ZM76.3034 45.9995L78.4516 42.623V40.2581H84.6452V42.624L86.7913 45.9955C87.8846 47.7132 88.8115 49.5444 89.564 51.4395C89.0539 52.443 88.7742 53.563 88.7742 54.7097V61.5721C88.4088 61.4224 88.0816 61.2389 87.7318 61.0393C86.7737 60.4914 85.6865 59.871 83.6048 59.871C81.5247 59.871 80.4385 60.4914 79.4798 61.0393C78.6386 61.5207 77.9128 61.9355 76.38 61.9355C74.8488 61.9355 74.1215 61.5207 73.2802 61.0393C72.7545 60.7399 72.1724 60.4138 71.4083 60.1825C71.9133 55.1492 73.567 50.2989 76.3034 45.9995ZM87.1371 93.9355C86.4713 93.9355 85.8458 93.6764 85.375 93.2056C84.5151 92.3448 83.3715 91.871 82.1532 91.871H80.9435C79.7253 91.871 78.5816 92.3448 77.7208 93.2056C77.251 93.6764 76.6255 93.9355 75.9597 93.9355H75.0071C72.3528 93.9355 70.1935 91.7762 70.1935 89.122C70.1935 88.379 70.3689 87.6346 70.7016 86.9698L71.4425 85.4864C72.6512 83.0701 73.2903 80.3644 73.2903 77.6608C73.2903 76.5388 73.1749 75.4219 72.9612 74.3226L72.4501 72.2581C71.9183 70.376 71.5736 68.4511 71.3901 66.5096C71.686 66.6436 71.9637 66.7964 72.256 66.9627C73.2147 67.5086 74.3009 68.129 76.38 68.129C78.4597 68.129 79.5459 67.5076 80.5045 66.9607C81.3463 66.4793 82.0726 66.0645 83.6048 66.0645C85.1386 66.0645 85.8654 66.4793 86.7077 66.9607C87.2772 67.2868 87.9093 67.6436 88.7732 67.877V88.7742C88.7732 90.5 89.3831 92.0857 90.3967 93.3296C89.6951 93.7167 88.9062 93.9355 88.0897 93.9355H87.1371ZM116.645 93.9355H96C93.5081 93.9355 91.4229 92.1588 90.943 89.8064H121.702C121.222 92.1588 119.137 93.9355 116.645 93.9355Z"/>
</mask>
<path d="M120.981 48.9289L115.613 44.9032V40.2581H117.677V35.0968C117.677 33.3896 116.288 32 114.581 32H98.0645C96.3574 32 94.9677 33.3896 94.9677 35.0968V40.2581H97.0323V44.9032L91.6643 48.9289C91.4289 49.1053 91.2072 49.2964 90.9975 49.499C90.2938 47.9007 89.4677 46.3558 88.5328 44.8856L86.7097 42.0222V40.2581H88.7742V35.0968C88.7742 33.3896 87.3846 32 85.6774 32H77.4194C75.7122 32 74.3226 33.3896 74.3226 35.0968V40.2581H76.3871V42.0222L74.561 44.8906C71.0287 50.4425 69.1613 56.8558 69.1613 63.4355C69.1613 66.6457 69.6084 69.8382 70.4909 72.9259L70.6321 73.4204C71.0267 74.8004 71.2258 76.2273 71.2258 77.6608C71.2258 80.0444 70.6623 82.4309 69.5958 84.5635L68.8548 86.0469C68.38 86.9955 68.129 88.06 68.129 89.122C68.129 92.9148 71.2142 96 75.0071 96H75.9597C77.1779 96 78.3216 95.5262 79.1825 94.6653C79.6522 94.1946 80.2777 93.9355 80.9435 93.9355H82.1532C82.819 93.9355 83.4446 94.1946 83.9153 94.6653C84.7752 95.5262 85.9188 96 87.1371 96H88.0897C89.4894 96 90.8327 95.5539 91.9723 94.7697C93.124 95.5459 94.5096 96 96 96H116.645C120.63 96 123.871 92.7576 123.871 88.7742V54.7097C123.871 52.4471 122.79 50.2863 120.981 48.9289ZM121.806 56.7742V87.7419H90.8387V85.6774V83.6129V54.7097C90.8387 53.9914 90.9985 53.2903 91.2817 52.6452H121.362C121.647 53.2903 121.806 53.9914 121.806 54.7097V56.7742ZM71.2258 63.4355C71.2258 63.0625 71.2525 62.692 71.2651 62.3206C71.6099 62.4662 71.9224 62.6426 72.256 62.8327C73.2147 63.3795 74.3009 63.999 76.38 63.999C78.4597 63.999 79.5459 63.3785 80.5045 62.8306C81.3463 62.3503 82.0726 61.9355 83.6048 61.9355C85.1386 61.9355 85.8654 62.3503 86.7077 62.8327C87.2772 63.1578 87.9093 63.5146 88.7732 63.748V65.7011C88.4078 65.5514 88.0806 65.3679 87.7303 65.1683C86.7737 64.6205 85.6865 64 83.6048 64C81.5247 64 80.4385 64.6205 79.4798 65.1683C78.6386 65.6497 77.9128 66.0645 76.38 66.0645C74.8478 66.0645 74.1215 65.6507 73.2777 65.1694C72.7172 64.8498 72.0958 64.5005 71.2545 64.2671C71.2475 63.9899 71.2258 63.7132 71.2258 63.4355ZM97.0323 35.0968C97.0323 34.5282 97.496 34.0645 98.0645 34.0645H114.581C115.149 34.0645 115.613 34.5282 115.613 35.0968V38.1935H97.0323V35.0968ZM113.548 40.2581V44.3871H99.0968V40.2581H113.548ZM98.4083 46.4516H114.236L119.741 50.5806H92.9032L98.4083 46.4516ZM76.3871 35.0968C76.3871 34.5282 76.8508 34.0645 77.4194 34.0645H85.6774C86.246 34.0645 86.7097 34.5282 86.7097 35.0968V38.1935H76.3871V35.0968ZM76.3034 45.9995L78.4516 42.623V40.2581H84.6452V42.624L86.7913 45.9955C87.8846 47.7132 88.8115 49.5444 89.564 51.4395C89.0539 52.443 88.7742 53.563 88.7742 54.7097V61.5721C88.4088 61.4224 88.0816 61.2389 87.7318 61.0393C86.7737 60.4914 85.6865 59.871 83.6048 59.871C81.5247 59.871 80.4385 60.4914 79.4798 61.0393C78.6386 61.5207 77.9128 61.9355 76.38 61.9355C74.8488 61.9355 74.1215 61.5207 73.2802 61.0393C72.7545 60.7399 72.1724 60.4138 71.4083 60.1825C71.9133 55.1492 73.567 50.2989 76.3034 45.9995ZM87.1371 93.9355C86.4713 93.9355 85.8458 93.6764 85.375 93.2056C84.5151 92.3448 83.3715 91.871 82.1532 91.871H80.9435C79.7253 91.871 78.5816 92.3448 77.7208 93.2056C77.251 93.6764 76.6255 93.9355 75.9597 93.9355H75.0071C72.3528 93.9355 70.1935 91.7762 70.1935 89.122C70.1935 88.379 70.3689 87.6346 70.7016 86.9698L71.4425 85.4864C72.6512 83.0701 73.2903 80.3644 73.2903 77.6608C73.2903 76.5388 73.1749 75.4219 72.9612 74.3226L72.4501 72.2581C71.9183 70.376 71.5736 68.4511 71.3901 66.5096C71.686 66.6436 71.9637 66.7964 72.256 66.9627C73.2147 67.5086 74.3009 68.129 76.38 68.129C78.4597 68.129 79.5459 67.5076 80.5045 66.9607C81.3463 66.4793 82.0726 66.0645 83.6048 66.0645C85.1386 66.0645 85.8654 66.4793 86.7077 66.9607C87.2772 67.2868 87.9093 67.6436 88.7732 67.877V88.7742C88.7732 90.5 89.3831 92.0857 90.3967 93.3296C89.6951 93.7167 88.9062 93.9355 88.0897 93.9355H87.1371ZM116.645 93.9355H96C93.5081 93.9355 91.4229 92.1588 90.943 89.8064H121.702C121.222 92.1588 119.137 93.9355 116.645 93.9355Z" fill="#322153" stroke="#322153" stroke-width="2" mask="url(#path-6-inside-1)"/>
<path d="M106.707 65.2924L106.323 64.8313L105.938 65.2923L102.624 69.2692C102.624 69.2693 102.624 69.2694 102.624 69.2695C102.624 69.2696 102.624 69.2696 102.624 69.2696C102.023 69.9895 101.694 70.9028 101.694 71.8402C101.694 74.0551 103.495 75.8548 105.709 75.8548H106.937C109.151 75.8548 110.952 74.055 110.952 71.8402C110.952 70.9027 110.622 69.9892 110.02 69.2692C110.02 69.2691 110.02 69.269 110.02 69.2689L106.707 65.2924ZM106.936 76.9194H105.708C102.908 76.9194 100.629 74.6402 100.629 71.8402C100.629 70.6543 101.047 69.4989 101.805 68.5883C101.805 68.5882 101.806 68.5882 101.806 68.5881L106.323 63.1686L110.838 68.5869C110.838 68.587 110.839 68.587 110.839 68.5871C111.598 69.5 112.016 70.6545 112.016 71.8402C112.016 74.6401 109.737 76.9194 106.936 76.9194Z" fill="#322153" stroke="#322153"/>
</svg>
