<svg width="192" height="184" viewBox="0 0 192 184" fill="none" xmlns="http://www.w3.org/2000/svg">
<rect width="192" height="184" rx="8" fill="#E1FAEC"/>
<path d="M38.0078 140.547V145H36.5078V133.625H40.7031C41.9479 133.625 42.9219 133.943 43.625 134.578C44.3333 135.214 44.6875 136.055 44.6875 137.102C44.6875 138.206 44.3411 139.057 43.6484 139.656C42.9609 140.25 41.974 140.547 40.6875 140.547H38.0078ZM38.0078 139.32H40.7031C41.5052 139.32 42.1198 139.133 42.5469 138.758C42.974 138.378 43.1875 137.831 43.1875 137.117C43.1875 136.44 42.974 135.898 42.5469 135.492C42.1198 135.086 41.5339 134.875 40.7891 134.859H38.0078V139.32ZM51.5 145C51.4167 144.833 51.349 144.536 51.2969 144.109C50.625 144.807 49.8229 145.156 48.8906 145.156C48.0573 145.156 47.3724 144.922 46.8359 144.453C46.3047 143.979 46.0391 143.38 46.0391 142.656C46.0391 141.776 46.3724 141.094 47.0391 140.609C47.7109 140.12 48.6536 139.875 49.8672 139.875H51.2734V139.211C51.2734 138.706 51.1224 138.305 50.8203 138.008C50.5182 137.706 50.0729 137.555 49.4844 137.555C48.9688 137.555 48.5365 137.685 48.1875 137.945C47.8385 138.206 47.6641 138.521 47.6641 138.891H46.2109C46.2109 138.469 46.3594 138.062 46.6562 137.672C46.9583 137.276 47.3646 136.964 47.875 136.734C48.3906 136.505 48.9557 136.391 49.5703 136.391C50.5443 136.391 51.3073 136.635 51.8594 137.125C52.4115 137.609 52.6979 138.279 52.7188 139.133V143.023C52.7188 143.799 52.8177 144.417 53.0156 144.875V145H51.5ZM49.1016 143.898C49.5547 143.898 49.9844 143.781 50.3906 143.547C50.7969 143.312 51.0911 143.008 51.2734 142.633V140.898H50.1406C48.3698 140.898 47.4844 141.417 47.4844 142.453C47.4844 142.906 47.6354 143.26 47.9375 143.516C48.2396 143.771 48.6276 143.898 49.1016 143.898ZM62.125 140.867C62.125 142.154 61.8307 143.19 61.2422 143.977C60.6536 144.763 59.8568 145.156 58.8516 145.156C57.8255 145.156 57.0182 144.831 56.4297 144.18V148.25H54.9844V136.547H56.3047L56.375 137.484C56.9635 136.755 57.7812 136.391 58.8281 136.391C59.8438 136.391 60.6458 136.773 61.2344 137.539C61.8281 138.305 62.125 139.37 62.125 140.734V140.867ZM60.6797 140.703C60.6797 139.75 60.4766 138.997 60.0703 138.445C59.6641 137.893 59.1068 137.617 58.3984 137.617C57.5234 137.617 56.8672 138.005 56.4297 138.781V142.82C56.862 143.591 57.5234 143.977 58.4141 143.977C59.1068 143.977 59.6562 143.703 60.0625 143.156C60.474 142.604 60.6797 141.786 60.6797 140.703ZM67.4766 145.156C66.3307 145.156 65.3984 144.781 64.6797 144.031C63.9609 143.276 63.6016 142.268 63.6016 141.008V140.742C63.6016 139.904 63.7604 139.156 64.0781 138.5C64.401 137.839 64.849 137.323 65.4219 136.953C66 136.578 66.625 136.391 67.2969 136.391C68.3958 136.391 69.25 136.753 69.8594 137.477C70.4688 138.201 70.7734 139.237 70.7734 140.586V141.188H65.0469C65.0677 142.021 65.3099 142.695 65.7734 143.211C66.2422 143.721 66.8359 143.977 67.5547 143.977C68.0651 143.977 68.4974 143.872 68.8516 143.664C69.2057 143.456 69.5156 143.18 69.7812 142.836L70.6641 143.523C69.9557 144.612 68.8932 145.156 67.4766 145.156ZM67.2969 137.578C66.7135 137.578 66.224 137.792 65.8281 138.219C65.4323 138.641 65.1875 139.234 65.0938 140H69.3281V139.891C69.2865 139.156 69.0885 138.589 68.7344 138.188C68.3802 137.781 67.901 137.578 67.2969 137.578ZM68 133H69.75L67.6562 135.297H66.4922L68 133ZM74.0234 145H72.5781V136.547H74.0234V145ZM72.4609 134.305C72.4609 134.07 72.5312 133.872 72.6719 133.711C72.8177 133.549 73.0312 133.469 73.3125 133.469C73.5938 133.469 73.8073 133.549 73.9531 133.711C74.099 133.872 74.1719 134.07 74.1719 134.305C74.1719 134.539 74.099 134.734 73.9531 134.891C73.8073 135.047 73.5938 135.125 73.3125 135.125C73.0312 135.125 72.8177 135.047 72.6719 134.891C72.5312 134.734 72.4609 134.539 72.4609 134.305ZM81.2656 142.758C81.2656 142.367 81.1172 142.065 80.8203 141.852C80.5286 141.633 80.0156 141.445 79.2812 141.289C78.5521 141.133 77.9714 140.945 77.5391 140.727C77.112 140.508 76.7943 140.247 76.5859 139.945C76.3828 139.643 76.2812 139.284 76.2812 138.867C76.2812 138.174 76.5729 137.589 77.1562 137.109C77.7448 136.63 78.4948 136.391 79.4062 136.391C80.3646 136.391 81.1406 136.638 81.7344 137.133C82.3333 137.628 82.6328 138.26 82.6328 139.031H81.1797C81.1797 138.635 81.0104 138.294 80.6719 138.008C80.3385 137.721 79.9167 137.578 79.4062 137.578C78.8802 137.578 78.4688 137.693 78.1719 137.922C77.875 138.151 77.7266 138.451 77.7266 138.82C77.7266 139.169 77.8646 139.432 78.1406 139.609C78.4167 139.786 78.9141 139.956 79.6328 140.117C80.3568 140.279 80.9427 140.471 81.3906 140.695C81.8385 140.919 82.1693 141.19 82.3828 141.508C82.6016 141.82 82.7109 142.203 82.7109 142.656C82.7109 143.411 82.4089 144.018 81.8047 144.477C81.2005 144.93 80.4167 145.156 79.4531 145.156C78.776 145.156 78.1771 145.036 77.6562 144.797C77.1354 144.557 76.7266 144.224 76.4297 143.797C76.138 143.365 75.9922 142.898 75.9922 142.398H77.4375C77.4635 142.883 77.6562 143.268 78.0156 143.555C78.3802 143.836 78.8594 143.977 79.4531 143.977C80 143.977 80.4375 143.867 80.7656 143.648C81.099 143.424 81.2656 143.128 81.2656 142.758ZM92.0703 145.156C90.9245 145.156 89.9922 144.781 89.2734 144.031C88.5547 143.276 88.1953 142.268 88.1953 141.008V140.742C88.1953 139.904 88.3542 139.156 88.6719 138.5C88.9948 137.839 89.4427 137.323 90.0156 136.953C90.5938 136.578 91.2188 136.391 91.8906 136.391C92.9896 136.391 93.8438 136.753 94.4531 137.477C95.0625 138.201 95.3672 139.237 95.3672 140.586V141.188H89.6406C89.6615 142.021 89.9036 142.695 90.3672 143.211C90.8359 143.721 91.4297 143.977 92.1484 143.977C92.6589 143.977 93.0911 143.872 93.4453 143.664C93.7995 143.456 94.1094 143.18 94.375 142.836L95.2578 143.523C94.5495 144.612 93.487 145.156 92.0703 145.156ZM91.8906 137.578C91.3073 137.578 90.8177 137.792 90.4219 138.219C90.026 138.641 89.7812 139.234 89.6875 140H93.9219V139.891C93.8802 139.156 93.6823 138.589 93.3281 138.188C92.974 137.781 92.4948 137.578 91.8906 137.578ZM102.742 140.547V145H101.242V133.625H105.438C106.682 133.625 107.656 133.943 108.359 134.578C109.068 135.214 109.422 136.055 109.422 137.102C109.422 138.206 109.076 139.057 108.383 139.656C107.695 140.25 106.708 140.547 105.422 140.547H102.742ZM102.742 139.32H105.438C106.24 139.32 106.854 139.133 107.281 138.758C107.708 138.378 107.922 137.831 107.922 137.117C107.922 136.44 107.708 135.898 107.281 135.492C106.854 135.086 106.268 134.875 105.523 134.859H102.742V139.32ZM116.234 145C116.151 144.833 116.083 144.536 116.031 144.109C115.359 144.807 114.557 145.156 113.625 145.156C112.792 145.156 112.107 144.922 111.57 144.453C111.039 143.979 110.773 143.38 110.773 142.656C110.773 141.776 111.107 141.094 111.773 140.609C112.445 140.12 113.388 139.875 114.602 139.875H116.008V139.211C116.008 138.706 115.857 138.305 115.555 138.008C115.253 137.706 114.807 137.555 114.219 137.555C113.703 137.555 113.271 137.685 112.922 137.945C112.573 138.206 112.398 138.521 112.398 138.891H110.945C110.945 138.469 111.094 138.062 111.391 137.672C111.693 137.276 112.099 136.964 112.609 136.734C113.125 136.505 113.69 136.391 114.305 136.391C115.279 136.391 116.042 136.635 116.594 137.125C117.146 137.609 117.432 138.279 117.453 139.133V143.023C117.453 143.799 117.552 144.417 117.75 144.875V145H116.234ZM113.836 143.898C114.289 143.898 114.719 143.781 115.125 143.547C115.531 143.312 115.826 143.008 116.008 142.633V140.898H114.875C113.104 140.898 112.219 141.417 112.219 142.453C112.219 142.906 112.37 143.26 112.672 143.516C112.974 143.771 113.362 143.898 113.836 143.898ZM126.859 140.867C126.859 142.154 126.565 143.19 125.977 143.977C125.388 144.763 124.591 145.156 123.586 145.156C122.56 145.156 121.753 144.831 121.164 144.18V148.25H119.719V136.547H121.039L121.109 137.484C121.698 136.755 122.516 136.391 123.562 136.391C124.578 136.391 125.38 136.773 125.969 137.539C126.562 138.305 126.859 139.37 126.859 140.734V140.867ZM125.414 140.703C125.414 139.75 125.211 138.997 124.805 138.445C124.398 137.893 123.841 137.617 123.133 137.617C122.258 137.617 121.602 138.005 121.164 138.781V142.82C121.596 143.591 122.258 143.977 123.148 143.977C123.841 143.977 124.391 143.703 124.797 143.156C125.208 142.604 125.414 141.786 125.414 140.703ZM132.211 145.156C131.065 145.156 130.133 144.781 129.414 144.031C128.695 143.276 128.336 142.268 128.336 141.008V140.742C128.336 139.904 128.495 139.156 128.812 138.5C129.135 137.839 129.583 137.323 130.156 136.953C130.734 136.578 131.359 136.391 132.031 136.391C133.13 136.391 133.984 136.753 134.594 137.477C135.203 138.201 135.508 139.237 135.508 140.586V141.188H129.781C129.802 142.021 130.044 142.695 130.508 143.211C130.977 143.721 131.57 143.977 132.289 143.977C132.799 143.977 133.232 143.872 133.586 143.664C133.94 143.456 134.25 143.18 134.516 142.836L135.398 143.523C134.69 144.612 133.628 145.156 132.211 145.156ZM132.031 137.578C131.448 137.578 130.958 137.792 130.562 138.219C130.167 138.641 129.922 139.234 129.828 140H134.062V139.891C134.021 139.156 133.823 138.589 133.469 138.188C133.115 137.781 132.635 137.578 132.031 137.578ZM138.758 145H137.312V133H138.758V145ZM146.297 145C146.214 144.833 146.146 144.536 146.094 144.109C145.422 144.807 144.62 145.156 143.688 145.156C142.854 145.156 142.169 144.922 141.633 144.453C141.102 143.979 140.836 143.38 140.836 142.656C140.836 141.776 141.169 141.094 141.836 140.609C142.508 140.12 143.451 139.875 144.664 139.875H146.07V139.211C146.07 138.706 145.919 138.305 145.617 138.008C145.315 137.706 144.87 137.555 144.281 137.555C143.766 137.555 143.333 137.685 142.984 137.945C142.635 138.206 142.461 138.521 142.461 138.891H141.008C141.008 138.469 141.156 138.062 141.453 137.672C141.755 137.276 142.161 136.964 142.672 136.734C143.188 136.505 143.753 136.391 144.367 136.391C145.341 136.391 146.104 136.635 146.656 137.125C147.208 137.609 147.495 138.279 147.516 139.133V143.023C147.516 143.799 147.615 144.417 147.812 144.875V145H146.297ZM143.898 143.898C144.352 143.898 144.781 143.781 145.188 143.547C145.594 143.312 145.888 143.008 146.07 142.633V140.898H144.938C143.167 140.898 142.281 141.417 142.281 142.453C142.281 142.906 142.432 143.26 142.734 143.516C143.036 143.771 143.424 143.898 143.898 143.898ZM147.297 133.25C147.297 133.812 147.135 134.268 146.812 134.617C146.495 134.966 146.096 135.141 145.617 135.141C145.404 135.141 145.219 135.115 145.062 135.062C144.906 135.01 144.701 134.904 144.445 134.742C144.195 134.581 144.013 134.484 143.898 134.453C143.789 134.417 143.661 134.398 143.516 134.398C143.302 134.398 143.12 134.482 142.969 134.648C142.818 134.81 142.742 135.018 142.742 135.273L141.773 135.219C141.773 134.661 141.93 134.201 142.242 133.836C142.56 133.471 142.961 133.289 143.445 133.289C143.628 133.289 143.792 133.315 143.938 133.367C144.083 133.419 144.281 133.521 144.531 133.672C144.781 133.823 144.971 133.922 145.102 133.969C145.237 134.016 145.385 134.039 145.547 134.039C145.771 134.039 145.956 133.951 146.102 133.773C146.253 133.596 146.328 133.391 146.328 133.156L147.297 133.25ZM149.398 140.695C149.398 139.867 149.56 139.122 149.883 138.461C150.211 137.799 150.664 137.289 151.242 136.93C151.826 136.57 152.49 136.391 153.234 136.391C154.385 136.391 155.315 136.789 156.023 137.586C156.737 138.383 157.094 139.443 157.094 140.766V140.867C157.094 141.69 156.935 142.43 156.617 143.086C156.305 143.737 155.854 144.245 155.266 144.609C154.682 144.974 154.01 145.156 153.25 145.156C152.104 145.156 151.174 144.758 150.461 143.961C149.753 143.164 149.398 142.109 149.398 140.797V140.695ZM150.852 140.867C150.852 141.805 151.068 142.557 151.5 143.125C151.938 143.693 152.521 143.977 153.25 143.977C153.984 143.977 154.568 143.69 155 143.117C155.432 142.539 155.648 141.732 155.648 140.695C155.648 139.768 155.427 139.018 154.984 138.445C154.547 137.867 153.964 137.578 153.234 137.578C152.521 137.578 151.945 137.862 151.508 138.43C151.07 138.997 150.852 139.81 150.852 140.867Z" fill="#322153"/>
<rect x="72" y="39" width="48" height="24" fill="#34CB79"/>
<rect x="119" y="33" width="62" height="46" rx="4" transform="rotate(90 119 33)" stroke="#322153" stroke-width="2"/>
<line x1="79" y1="69" x2="97" y2="69" stroke="#322153" stroke-width="2" stroke-linejoin="round"/>
<line x1="79" y1="74" x2="97" y2="74" stroke="#322153" stroke-width="2" stroke-linejoin="round"/>
<line x1="79" y1="79" x2="97" y2="79" stroke="#322153" stroke-width="2" stroke-linejoin="round"/>
</svg>
