<svg width="469" height="511" viewBox="0 0 469 511" fill="none" xmlns="http://www.w3.org/2000/svg">
<path d="M228 465C102.079 465 2.96991e-06 475.297 1.91325e-06 488C8.56592e-07 500.703 102.079 511 228 511C353.921 511 456 500.703 456 488C456 475.297 353.921 465 228 465Z" fill="#F0F0F5"/>
<path d="M434.38 398.817C434.38 398.817 402.032 491.056 398.566 491.056C395.1 491.056 325.782 512.963 387.013 485.291C387.013 485.291 393.945 384.981 404.343 380.369C414.74 375.758 434.38 398.817 434.38 398.817Z" fill="#965450"/>
<path d="M410.119 465.229C420.632 437.903 434.38 398.817 434.38 398.817C434.38 398.817 414.74 375.758 404.343 380.369C397.642 383.367 392.328 426.489 389.439 456.466C396.371 459.234 403.187 462.231 410.119 465.229Z" fill="#76413B"/>
<path d="M376.962 490.249C376.962 490.249 374.305 496.36 399.721 489.903L398.566 493.362C398.566 493.362 326.938 510.196 376.962 490.249Z" fill="#051F38"/>
<path d="M414.739 359.731C414.739 359.731 464.764 443.784 462.569 446.436C460.374 449.087 432.647 516.191 450.669 451.509C450.669 451.509 378.117 381.753 381.236 370.8C384.471 359.962 414.739 359.731 414.739 359.731Z" fill="#965450"/>
<path d="M448.128 462.347C448.128 462.347 451.132 468.342 462.454 444.706L464.418 447.819C464.303 447.819 431.261 513.539 448.128 462.347Z" fill="#051F38"/>
<path d="M443.854 409.771C430.452 386.134 414.74 359.731 414.74 359.731C414.74 359.731 384.471 359.962 381.237 370.8C379.157 377.833 408.964 409.655 430.106 431.101C430.221 431.216 438.424 422.108 443.854 409.771Z" fill="#76413B"/>
<path d="M446.51 233.364C446.51 233.364 415.894 199.351 397.987 220.681C380.08 242.011 352.353 312.343 356.396 341.168C358.822 358.117 375.112 376.219 388.167 388.325L377.192 450.125C377.192 450.125 422.248 462.231 419.36 462.231C417.627 462.231 463.839 338.286 468.46 299.084C473.081 259.883 446.51 233.364 446.51 233.364Z" fill="#8257E6"/>
<path opacity="0.2" d="M423.058 240.974C431.608 240.858 440.965 239.705 449.168 236.362C447.551 234.402 446.511 233.364 446.511 233.364C446.511 233.364 415.895 199.351 397.988 220.681C395.216 224.025 392.212 228.406 389.208 233.71C399.259 239.244 411.967 241.204 423.058 240.974Z" fill="#352C38"/>
<path opacity="0.2" d="M377.193 257.461C364.485 286.401 353.74 322.374 356.398 341.053C358.708 357.886 374.882 375.873 387.937 387.979C392.558 356.618 400.992 313.035 406.075 287.9C393.483 280.752 383.085 270.49 377.193 257.461Z" fill="#352C38"/>
<path d="M358.131 165.337L339.646 201.08C339.646 201.08 307.297 183.208 302.676 183.208C298.055 183.208 276.104 183.785 286.502 188.397C286.502 188.397 281.881 191.279 287.08 192.432C287.08 192.432 282.458 196.468 288.235 197.044L301.521 196.468C301.521 196.468 328.093 220.68 341.379 224.139C354.665 227.598 376.038 182.632 376.038 182.632L358.131 165.337Z" fill="#965450"/>
<path d="M361.134 190.934C364.023 191.972 367.026 193.01 370.03 194.047C373.727 187.59 376.038 182.517 376.038 182.517L358.131 165.223L347.964 184.823C352.008 187.36 356.513 189.32 361.134 190.934Z" fill="#76413B"/>
<path d="M381.236 148.043C381.236 148.043 363.907 145.161 357.552 154.385C351.198 163.608 348.31 178.597 348.31 178.597L373.149 190.704L381.236 148.043Z" fill="#34CB79"/>
<path opacity="0.1" d="M371.648 180.673C365.294 175.715 358.015 169.489 353.279 161.994C349.813 170.065 348.195 178.482 348.195 178.482L373.034 190.588L374.536 182.748C373.612 182.171 372.572 181.48 371.648 180.673Z" fill="#161826"/>
<path d="M259.699 178.943C260.392 180.788 259.353 182.863 257.504 183.555L243.872 188.513C242.023 189.205 239.944 188.167 239.251 186.322L233.821 171.218C233.127 169.373 234.167 167.298 236.016 166.606L249.648 161.648C251.497 160.957 253.576 161.994 254.269 163.839L259.699 178.943Z" fill="#23173B"/>
<path d="M270.674 167.644L227.928 182.979C220.419 185.63 216.607 193.932 219.264 201.426L232.434 237.976C235.091 245.47 243.409 249.275 250.919 246.623L293.665 231.289C301.174 228.637 304.987 220.335 302.33 212.841L289.159 176.291C286.387 168.797 278.184 164.877 270.674 167.644ZM298.171 216.185C299.21 219.182 297.708 222.526 294.705 223.564L276.335 172.832C279.339 171.795 282.69 173.293 283.729 176.291L298.171 216.185Z" fill="#322153"/>
<path d="M256.926 163.608C257.504 165.223 256.695 167.067 255.078 167.644L235.669 174.677C234.052 175.254 232.203 174.446 231.625 172.832L230.008 168.336C229.43 166.721 230.239 164.877 231.856 164.3L251.265 157.267C252.883 156.69 254.731 157.498 255.309 159.112L256.926 163.608Z" fill="#8257E6"/>
<path d="M284.192 185.515C284.192 185.515 291.47 182.979 292.741 184.477C293.896 185.861 286.618 187.936 286.964 188.052C287.195 188.167 294.82 186.437 295.514 188.052C296.207 189.666 287.426 192.548 287.426 192.548C287.426 192.548 295.745 190.242 296.322 191.972C296.9 193.701 287.657 196.238 287.657 196.238L287.195 192.433L286.618 188.052L284.192 185.515Z" fill="#965450"/>
<path d="M294.474 183.555C294.474 183.555 288.813 179.75 288.813 178.482C288.697 177.098 303.832 183.44 303.832 183.44L294.474 183.555Z" fill="#965450"/>
<path d="M406.075 145.161C404.92 147.236 410.581 98.926 410.581 98.926L384.356 116.567C384.356 116.567 386.666 147.467 383.778 147.582C382.623 147.582 378.117 149.311 373.149 151.156C374.305 156.921 376.615 158.189 378.579 163.724C393.252 163.608 409.195 163.263 418.206 149.888C413.007 148.158 407.577 142.278 406.075 145.161Z" fill="#76413B"/>
<path d="M381.237 148.043L380.081 144.008L408.964 137.666L410.119 144.584C410.119 144.584 444.778 156.114 449.399 182.056C454.02 207.998 451.71 224.717 446.511 233.364C446.511 233.364 406.075 239.129 388.746 230.482C371.417 221.834 353.509 157.267 362.752 151.502C371.994 145.737 381.237 148.043 381.237 148.043Z" fill="#34CB79"/>
<path opacity="0.1" d="M419.015 219.874C405.151 219.067 388.168 217.453 376.615 208.921C374.42 207.306 372.456 205.577 370.608 203.617C375.807 216.415 382.276 227.253 388.746 230.481C406.076 239.129 446.511 233.364 446.511 233.364C448.822 229.559 450.555 224.14 451.363 216.992C440.966 220.105 430.106 220.566 419.015 219.874Z" fill="#161826"/>
<path d="M417.628 199.927L447.088 197.621C447.088 197.621 439.579 249.505 430.914 267.377C422.25 285.248 382.392 355.58 397.988 316.378C397.988 316.378 377.771 346.933 395.1 315.802C395.1 315.802 376.038 340.591 392.789 314.073C392.789 314.073 373.149 336.556 393.945 304.849C393.945 304.849 378.348 312.343 395.678 299.66L412.429 255.847L417.628 199.927Z" fill="#965450"/>
<path d="M446.395 201.772C446.857 199.12 447.088 197.506 447.088 197.506L417.628 199.812L417.397 202.81C426.986 202.81 436.691 202.349 446.395 201.772Z" fill="#76413B"/>
<path d="M386.782 67.9108C386.782 67.9108 401.455 59.3787 422.943 73.4451C437.153 82.7843 436.46 112.647 405.729 132.247C369.222 155.538 386.782 67.9108 386.782 67.9108Z" fill="#051F38"/>
<path d="M407.116 83.8219C407.116 83.8219 390.595 71.0238 376.5 77.2499C358.709 85.3208 360.557 104.114 360.21 120.141C359.748 141.471 376.616 145.507 381.699 145.737C389.208 146.198 419.824 144.354 407.116 83.8219Z" fill="#965450"/>
<path d="M408.733 103.769C408.733 103.769 409.426 100.54 414.972 103.077C422.019 106.42 418.207 123.254 410.35 122.793C402.379 122.447 408.733 103.769 408.733 103.769Z" fill="#965450"/>
<path d="M408.733 103.769C408.733 103.769 409.657 115.298 407 115.414C404.227 115.529 401.339 94.5447 408.964 94.5447C416.589 94.7753 408.733 103.769 408.733 103.769Z" fill="#051F38"/>
<path d="M408.733 103.769C408.733 103.769 403.072 78.1724 369.453 82.4384C369.453 82.4384 374.305 72.8686 384.934 68.372C399.375 62.2612 420.979 86.8197 414.971 103.077C414.971 103.077 412.199 103.423 408.733 103.769Z" fill="#34CB79"/>
<path d="M422.943 80.1324C422.943 80.1324 421.094 49.5783 428.488 49.5783C435.882 49.5783 427.911 75.2899 427.911 75.2899C427.911 75.2899 434.034 38.5097 451.825 44.044C469.617 49.5783 438.886 75.2899 438.886 75.2899C438.886 75.2899 452.981 62.3765 457.948 66.7578C462.801 71.0238 437.731 79.6712 437.731 79.6712C437.731 79.6712 456.793 74.1369 459.219 83.3608C461.645 92.4693 422.365 91.2011 422.943 80.1324Z" fill="#051F38"/>
<path d="M361.134 97.8889C361.134 97.8889 361.134 97.6583 361.365 97.1971C361.596 96.7359 361.828 96.1594 362.405 95.5829C362.983 95.0064 363.676 94.3146 364.6 93.8534C364.831 93.7381 365.062 93.6228 365.409 93.5075C365.64 93.3922 365.987 93.2769 366.218 93.2769C366.564 93.2769 366.795 93.1616 367.142 93.1616H368.066C368.644 93.1616 369.221 93.3922 369.799 93.6228C370.377 93.8534 370.839 94.084 371.301 94.4299C371.763 94.7758 372.11 95.1217 372.456 95.4676C372.803 95.8135 373.034 96.1594 373.149 96.5053C373.265 96.6206 373.381 96.8512 373.381 96.9665C373.496 97.0818 373.496 97.3124 373.612 97.4277C373.727 97.7736 373.843 98.0042 373.843 98.2348C373.958 98.6959 373.958 98.9265 373.958 98.9265C373.958 98.9265 373.727 98.8112 373.265 98.696C373.034 98.5807 372.803 98.4653 372.572 98.3501C372.341 98.2348 371.994 98.1195 371.648 97.8889C371.301 97.7736 371.07 97.543 370.723 97.4277C370.377 97.3124 370.03 97.1971 369.684 97.0818C369.337 96.9665 368.99 96.8512 368.644 96.7359C368.297 96.7359 367.951 96.6206 367.604 96.6206H367.142C367.026 96.6206 366.795 96.6206 366.564 96.6206C366.218 96.6206 365.871 96.7359 365.524 96.7359C365.178 96.8512 364.831 96.8512 364.485 96.9665C364.138 97.0818 363.792 97.0818 363.445 97.1971C362.752 97.4277 362.174 97.543 361.828 97.6583C361.481 97.8889 361.134 97.8889 361.134 97.8889Z" fill="#051F38"/>
<path d="M370.03 129.595C370.03 129.595 388.977 130.172 390.248 129.941C391.403 129.711 379.619 138.935 370.03 129.595Z" fill="white"/>
<path d="M371.301 108.496C371.301 108.496 371.301 108.726 371.185 109.188C371.07 109.649 370.954 110.225 370.723 111.032C370.608 111.378 370.492 111.839 370.261 112.185C370.146 112.416 370.03 112.647 369.915 112.762C369.799 112.992 369.568 113.223 369.453 113.338C369.106 113.684 368.759 114.145 368.182 114.376C368.066 114.491 367.951 114.491 367.72 114.607L367.373 114.722C367.142 114.837 366.795 114.837 366.449 114.837C365.871 114.837 365.178 114.722 364.716 114.261C364.254 113.915 363.907 113.454 363.676 112.877C363.445 112.416 363.329 111.955 363.214 111.494C363.098 111.032 363.098 110.571 363.098 110.225C363.098 109.418 363.098 108.842 363.214 108.381C363.329 107.919 363.445 107.689 363.445 107.689C363.445 107.689 363.445 108.726 363.792 110.225C363.907 110.917 364.138 111.839 364.6 112.531C364.831 112.877 365.062 113.223 365.409 113.454C365.756 113.684 366.102 113.8 366.449 113.8C366.68 113.8 366.795 113.8 367.026 113.684L367.373 113.569C367.373 113.569 367.489 113.454 367.604 113.454C367.951 113.338 368.297 112.992 368.644 112.762C368.99 112.416 369.221 112.07 369.453 111.724C369.684 111.378 369.915 111.032 370.03 110.686C370.377 109.995 370.608 109.418 370.839 109.072C371.185 108.726 371.301 108.496 371.301 108.496Z" fill="#1F2733"/>
<path d="M390.363 109.995C390.363 109.995 390.363 110.225 390.248 110.686C390.132 111.148 390.017 111.724 389.786 112.531C389.67 112.877 389.555 113.338 389.324 113.684C389.208 113.915 389.093 114.145 388.977 114.261C388.862 114.491 388.63 114.722 388.515 114.837C388.168 115.183 387.822 115.644 387.244 115.875C387.129 115.99 387.013 115.99 386.782 116.106L386.435 116.221C386.204 116.336 385.858 116.336 385.511 116.336C384.934 116.336 384.24 116.221 383.778 115.76C383.316 115.414 382.97 114.953 382.738 114.376C382.507 113.915 382.392 113.454 382.276 112.992C382.161 112.531 382.161 112.07 382.161 111.724C382.161 110.917 382.161 110.341 382.276 109.879C382.392 109.418 382.507 109.188 382.507 109.188C382.507 109.188 382.507 110.225 382.854 111.724C382.97 112.416 383.201 113.338 383.663 114.03C383.894 114.376 384.125 114.722 384.471 114.953C384.818 115.183 385.165 115.298 385.511 115.298C385.742 115.298 385.858 115.298 386.089 115.183L386.435 115.068C386.435 115.068 386.551 114.953 386.666 114.953C387.013 114.837 387.36 114.491 387.706 114.261C388.053 113.915 388.284 113.569 388.515 113.223C388.746 112.877 388.977 112.531 389.093 112.185C389.439 111.494 389.67 110.917 389.901 110.571C390.248 110.225 390.363 109.995 390.363 109.995Z" fill="#1F2733"/>
<path d="M411.39 119.565C411.736 119.103 411.967 118.757 412.198 118.296C412.43 117.835 412.545 117.374 412.661 116.913C412.661 116.682 412.661 116.451 412.661 116.221C412.661 116.106 412.545 115.99 412.545 115.99C412.545 115.875 412.43 115.76 412.314 115.76C412.198 115.644 412.198 115.644 412.083 115.529L411.852 115.298C411.736 115.183 411.621 115.183 411.505 115.183L411.159 115.068L410.928 114.953V114.722C410.581 113.454 410.466 112.301 410.35 111.032C410.234 110.456 410.234 109.764 410.35 109.188C410.35 108.496 410.466 107.919 410.697 107.228C410.812 106.882 411.043 106.536 411.39 106.305C411.736 106.075 412.198 105.844 412.545 105.959C413.007 105.959 413.238 106.075 413.585 106.19C413.931 106.305 414.278 106.421 414.509 106.651C414.74 106.882 415.087 107.112 415.202 107.343C415.433 107.574 415.549 107.919 415.664 108.15C415.895 108.726 416.011 109.418 415.895 109.995C415.78 109.418 415.664 108.842 415.318 108.265C415.202 108.035 414.971 107.804 414.74 107.573C414.509 107.343 414.278 107.228 414.047 107.112C413.816 106.997 413.585 106.882 413.238 106.882C413.007 106.882 412.661 106.766 412.43 106.766C411.967 106.766 411.736 107.112 411.621 107.573C411.274 108.611 411.39 109.764 411.39 110.917C411.505 112.07 411.621 113.338 411.852 114.491L411.621 114.146L411.967 114.376C412.083 114.491 412.198 114.491 412.314 114.607L412.661 114.837C412.776 114.953 412.892 115.068 413.007 115.183C413.123 115.299 413.238 115.414 413.238 115.644C413.354 115.76 413.354 115.99 413.354 116.106C413.469 116.451 413.354 116.682 413.354 117.028C413.238 117.604 412.892 118.066 412.545 118.527C412.198 118.873 411.736 119.334 411.39 119.565Z" fill="#76413B"/>
<path d="M373.034 124.407C372.456 124.522 371.994 124.522 371.532 124.522C371.07 124.522 370.608 124.407 370.261 124.292C369.799 124.176 369.453 123.946 369.106 123.831C368.875 123.715 368.759 123.6 368.528 123.485C368.297 123.369 368.182 123.254 367.951 123.139L367.258 122.562L367.373 122.101C368.528 118.757 369.684 115.529 370.839 112.301C371.994 109.072 373.265 105.729 374.536 102.5C373.727 105.844 372.803 109.303 371.994 112.647C371.07 115.99 370.146 119.334 369.222 122.678L368.759 121.64C368.991 121.64 369.222 121.755 369.453 121.755C369.684 121.755 369.915 121.87 370.03 121.986C370.377 122.101 370.839 122.332 371.186 122.562C371.532 122.793 371.879 123.139 372.225 123.485C372.456 123.6 372.803 123.946 373.034 124.407Z" fill="#76413B"/>
<path d="M379.85 96.5048C379.85 96.5048 379.966 96.1589 380.312 95.813C380.543 95.5824 380.659 95.3518 381.005 95.0059C381.352 94.7753 381.583 94.4294 382.045 94.1988C382.392 93.9682 382.854 93.6223 383.432 93.3917C383.894 93.1611 384.471 92.9306 385.049 92.7C385.627 92.5847 386.32 92.3541 387.013 92.3541C387.36 92.3541 387.706 92.3541 388.053 92.3541L389.093 92.4694C389.786 92.4694 390.479 92.8153 391.057 92.9306C391.634 93.1612 392.212 93.507 392.789 93.7376C393.367 94.0835 393.829 94.4294 394.176 94.7753C394.638 95.1212 394.985 95.5824 395.216 95.9283C395.562 96.2742 395.793 96.6201 396.024 96.966C396.255 97.3119 396.371 97.6578 396.486 97.8884C396.718 98.3496 396.833 98.6955 396.833 98.6955C396.833 98.6955 396.486 98.5802 396.024 98.3496C395.793 98.2343 395.447 98.119 395.1 97.8884C394.753 97.6578 394.407 97.5425 393.945 97.4272C393.598 97.3119 393.136 97.0813 392.674 96.8507C392.212 96.7354 391.75 96.5048 391.288 96.3895C390.825 96.2742 390.363 96.1589 389.901 96.0436C389.439 96.0436 388.977 95.813 388.399 95.813L387.706 95.6977H387.013C386.551 95.6977 385.973 95.6977 385.511 95.6977C385.049 95.6977 384.587 95.6977 384.125 95.813C383.663 95.813 383.201 95.9283 382.738 95.9283C381.93 96.0436 381.121 96.1589 380.659 96.2742C380.197 96.5048 379.85 96.5048 379.85 96.5048Z" fill="#051F38"/>
<path d="M363.907 490.825C363.907 494.976 360.557 498.435 356.398 498.55C352.238 498.55 348.773 495.207 348.657 491.056L348.31 466.613C348.31 462.462 351.661 459.003 355.82 458.888C359.979 458.888 363.445 462.231 363.56 466.382L363.907 490.825Z" fill="#091E1D"/>
<path d="M257.504 492.095C257.504 496.245 254.154 499.704 249.995 499.82C245.836 499.82 242.37 496.476 242.254 492.325L241.908 467.882C241.908 463.731 245.258 460.272 249.417 460.157C253.576 460.157 257.042 463.501 257.158 467.651L257.504 492.095Z" fill="#091E1D"/>
<path d="M355.358 473.415C355.473 482.87 347.848 490.595 338.375 490.71L267.209 491.517C257.735 491.633 249.995 484.023 249.879 474.568L242.254 312.92C242.139 303.466 249.764 295.741 259.237 295.625L341.841 294.588C351.314 294.472 359.055 302.082 359.17 311.536L355.358 473.415Z" fill="#34CB79"/>
<path opacity="0.1" d="M358.708 327.793L359.055 311.767C358.939 302.312 351.199 294.703 341.725 294.818L259.122 295.856C249.648 295.971 242.023 303.696 242.139 313.151L242.947 329.177L358.708 327.793Z" fill="#161826"/>
<path d="M372.803 307.732C372.803 310.383 370.723 312.459 368.066 312.574L233.127 314.188C230.47 314.188 228.391 312.113 228.275 309.461L228.044 292.397C228.044 289.745 230.124 287.67 232.781 287.554L367.72 285.94C370.377 285.94 372.456 288.016 372.572 290.667L372.803 307.732Z" fill="#34CB79"/>
<path d="M301.174 355.119L316.886 345.665L313.074 355.465L301.174 355.119Z" fill="white"/>
<path d="M295.282 340.246C295.282 340.246 296.553 340.246 298.517 343.243C300.481 346.241 304.871 354.312 304.871 354.312L312.843 350.738L314.691 347.625C314.691 347.625 311.226 340.707 308.453 340.246H295.282Z" fill="white"/>
<path d="M290.892 342.321C290.892 342.321 293.318 339.669 295.282 341.053C297.246 342.437 300.712 348.202 300.712 348.202L295.051 358.117L284.885 352.468L290.892 342.321Z" fill="white"/>
<path d="M308.337 367.456L309.146 385.673L302.33 377.718L308.337 367.456Z" fill="white"/>
<path d="M324.28 369.301C324.28 369.301 323.703 370.454 320.121 370.8C316.54 371.146 307.297 371.146 307.297 371.146L306.604 379.908L308.453 383.021C308.453 383.021 316.193 383.367 317.926 381.061L324.28 369.301Z" fill="white"/>
<path d="M324.396 364.458C324.396 364.458 325.667 367.802 323.472 368.955C321.392 369.993 314.576 370.223 314.576 370.223L308.453 360.538L318.273 354.197L324.396 364.458Z" fill="white"/>
<path d="M294.472 367.226L278.298 358.693L288.695 356.849L294.472 367.226Z" fill="white"/>
<path d="M284.885 380.024C284.885 380.024 284.192 378.986 285.694 375.758C287.195 372.529 291.817 364.574 291.817 364.574L284.654 359.616L281.072 359.731C281.072 359.731 276.913 366.303 277.953 368.84L284.885 380.024Z" fill="white"/>
<path d="M288.928 382.56C288.928 382.56 285.347 381.868 285.578 379.562C285.693 377.141 288.928 371.261 288.928 371.261L300.366 370.915L300.828 382.56H288.928Z" fill="white"/>
<path d="M53.2474 445.167C53.2474 445.167 50.7058 485.868 48.5107 486.675C40.077 489.557 -23.5799 505.699 36.6112 478.604L34.9937 448.972L53.2474 445.167Z" fill="#051F38"/>
<path d="M50.5902 476.759C52.0921 464.422 53.2474 445.167 53.2474 445.167L34.9937 448.972L36.4955 475.376C41.0012 476.644 46.2 476.759 50.5902 476.759Z" fill="#041523"/>
<path d="M11.079 492.786C9.23055 497.282 42.5031 488.75 48.5107 486.675C48.6262 486.559 48.8573 486.329 49.0883 485.752C41.5789 487.828 18.8195 493.016 11.079 492.786Z" fill="white"/>
<path d="M92.1809 442.977C92.1809 442.977 95.5313 483.677 97.8419 484.369C106.391 487.136 170.279 502.01 109.51 476.067L110.55 446.436L92.1809 442.977Z" fill="#051F38"/>
<path d="M95.5313 474.453C93.7983 462.232 92.1809 442.977 92.1809 442.977L110.55 446.436L109.626 472.839C105.12 474.223 99.9214 474.338 95.5313 474.453Z" fill="#041523"/>
<path d="M135.389 489.788C137.353 494.284 103.849 486.329 97.8419 484.369C97.6109 484.369 97.4953 484.023 97.2643 483.446C104.774 485.522 127.649 490.249 135.389 489.788Z" fill="white"/>
<path d="M103.387 223.218C103.387 223.218 120.024 357.31 116.673 465.806C116.673 465.806 96.8022 471.34 91.6033 467.305C87.0976 441.593 87.6753 391.554 80.9746 354.427C74.6204 319.377 72.0788 290.667 72.0788 290.667L69.9992 288.361C69.9992 288.361 56.3667 457.85 53.363 470.764C36.149 474.799 30.7191 470.072 30.7191 470.072C30.7191 470.072 22.8631 258.038 27.7154 223.794C33.954 179.059 103.387 223.218 103.387 223.218Z" fill="#34CB79"/>
<path opacity="0.1" d="M106.39 251.004C104.657 233.709 103.271 223.333 103.271 223.333C103.271 223.333 33.9527 179.173 27.5986 223.909C27.0209 228.06 26.6743 234.862 26.3278 243.51C31.5266 246.392 96.4543 255.616 106.39 251.004Z" fill="#161826"/>
<path opacity="0.1" d="M70.808 286.978C71.6167 296.086 75.7758 325.488 80.9746 354.427C87.6753 391.669 87.0977 441.593 91.6033 467.305C96.8022 471.34 116.673 465.806 116.673 465.806C118.637 399.048 113.207 322.605 108.586 273.719C97.6109 280.636 83.6318 283.98 70.808 286.978Z" fill="#161826"/>
<path d="M76.7 105.959C76.8155 91.8928 77.8553 73.3298 77.8553 73.3298L50.1281 65.7201C50.1281 65.7201 51.0524 90.8552 51.8611 106.19C39.2683 110.456 24.9426 118.527 24.9426 118.527L77.2776 131.786L95.8779 113.8C95.8779 113.8 86.52 109.072 76.7 105.959Z" fill="#FFB39F"/>
<path d="M76.7 105.959C76.8155 91.8928 77.8553 73.3298 77.8553 73.3298L50.1281 65.7201C50.1281 65.7201 51.0524 90.8552 51.8611 106.19C39.2683 110.456 24.9426 118.527 24.9426 118.527L77.2776 131.786L102.001 110.571C102.001 110.571 86.6355 104.806 76.7 105.959Z" fill="#E09B8D"/>
<path d="M47.7019 39.0862C47.7019 39.0862 54.9803 15.5653 74.1582 19.2549C93.3362 22.9444 96.1089 47.9642 98.535 64.7978C100.961 81.7466 95.5313 96.966 80.5124 98.8108C67.4575 100.425 44.6981 97.8884 47.7019 39.0862Z" fill="#FFB39F"/>
<path d="M48.6262 58.8022C48.6262 58.8022 47.4709 55.6891 42.7342 59.1481C36.7266 63.5294 42.8497 79.6712 50.1281 77.9418C57.4065 76.2123 48.6262 58.8022 48.6262 58.8022Z" fill="#FFB39F"/>
<path d="M41.9254 25.5963C42.3876 25.481 51.3989 24.7892 45.3913 25.3657C50.9368 31.3612 50.3591 32.8601 57.9841 34.2436C62.0276 46.6959 54.0561 54.1903 54.0561 54.1903L56.2511 69.1791L50.4747 69.7556C50.4747 69.7556 50.5902 59.3787 46.2001 58.4563C41.8099 57.5339 40.5391 62.8377 40.5391 62.8377C31.4122 51.3078 22.1699 28.7093 41.9254 25.5963Z" fill="#051F38"/>
<path d="M94.2604 17.1795C97.9574 8.07089 91.7188 0 91.7188 0C92.7585 3.34366 92.2964 6.45671 91.2566 8.99328C90.5634 6.45671 89.2926 3.68955 86.982 0.922387C86.982 0.922387 87.6752 10.1463 75.0825 8.99328C62.4897 7.84029 40.4235 9.56977 39.4993 29.0552C38.4595 48.5407 57.2909 34.3589 57.2909 34.3589C57.2909 34.3589 94.8381 44.8511 100.268 14.6429L94.2604 17.1795Z" fill="#051F38"/>
<path d="M76.4689 50.8476C76.4689 50.8476 76.1223 50.8476 75.6602 50.7323C75.0826 50.617 74.3894 50.5017 73.5807 50.3864C73.1186 50.2711 72.772 50.2711 72.3099 50.2711C71.8477 50.1558 71.3856 50.1558 70.9235 50.1558C70.4614 50.1558 69.9993 50.1558 69.4216 50.1558C69.1906 50.1558 68.9595 50.1558 68.7284 50.1558L68.0353 50.2711C67.5731 50.2711 67.111 50.3864 66.5334 50.5017C66.0713 50.617 65.6091 50.7323 65.147 50.8476C64.6849 50.9629 64.2228 51.1935 63.7607 51.3088C63.2985 51.4241 62.9519 51.6547 62.4898 51.77C62.1432 51.8853 61.6811 52.0006 61.4501 52.2312C61.1035 52.3465 60.8724 52.4618 60.6414 52.5771C60.1792 52.8077 59.8326 52.923 59.8326 52.923C59.8326 52.923 59.9482 52.5771 60.1792 52.1159C60.2948 51.8853 60.4103 51.5394 60.6414 51.1935C60.8724 50.8476 61.1035 50.5017 61.4501 50.1558C61.7966 49.8099 62.0277 49.3487 62.4898 49.0028C62.9519 48.6569 63.4141 48.311 63.9917 47.9651C64.5694 47.7345 65.147 47.3886 65.7247 47.158C66.4178 46.9274 66.9955 46.8121 67.6887 46.6968L68.7284 46.5815C69.075 46.5815 69.4216 46.5815 69.7682 46.6968C70.1148 46.6968 70.4614 46.8121 70.6924 46.8121C71.039 46.9274 71.2701 46.9274 71.6167 47.0427C72.1943 47.2733 72.772 47.3886 73.2341 47.7345C73.6962 47.9651 74.1583 48.311 74.6205 48.5416C74.967 48.7722 75.3136 49.1181 75.6602 49.3487C75.8913 49.5793 76.1223 49.9252 76.3534 50.0405C76.2379 50.5017 76.4689 50.8476 76.4689 50.8476Z" fill="#051F38"/>
<path d="M95.9934 50.2702C95.9934 50.2702 95.7624 50.1549 95.3002 50.0396C94.8381 49.9243 94.2605 49.6937 93.6828 49.4631C93.3362 49.3478 92.9897 49.2325 92.6431 49.1172C92.2965 49.0019 91.9499 48.8866 91.6033 48.8866C91.2567 48.8866 90.9101 48.7713 90.5635 48.656C90.448 48.656 90.2169 48.656 90.1014 48.5407H89.6393C89.2927 48.4254 88.9461 48.656 88.5995 48.5407C88.2529 48.656 87.9063 48.656 87.5598 48.7713C87.2132 48.8866 86.8666 49.0019 86.52 49.1172C86.1734 49.2325 85.8268 49.3478 85.5958 49.4631C85.2492 49.5784 84.9026 49.6937 84.6715 49.809C84.4405 49.9243 84.2094 50.0396 83.9783 50.0396C83.5162 50.1549 83.2852 50.2702 83.2852 50.2702C83.2852 50.2702 83.2852 50.0396 83.5162 49.5784C83.6317 49.3478 83.6317 49.1172 83.8628 48.7713C83.9783 48.4254 84.2094 48.1948 84.4405 47.8489C84.6715 47.503 84.9026 47.1571 85.2492 46.8112C85.5957 46.4653 86.0579 46.2347 86.4045 45.8888C86.8666 45.6582 87.4442 45.4276 87.9063 45.197C88.484 45.0817 89.0616 44.9664 89.6393 44.9664C89.9859 44.9664 90.2169 44.9664 90.5635 44.9664C90.9101 44.9664 91.1412 45.0817 91.3722 45.197C91.6033 45.197 91.9499 45.3123 92.1809 45.4276C92.412 45.5429 92.6431 45.6582 92.8741 45.7735C93.7984 46.35 94.4916 46.9265 94.9537 47.6183C95.4158 48.3101 95.6468 48.8866 95.8779 49.3478C95.9934 50.0396 95.9934 50.2702 95.9934 50.2702Z" fill="#051F38"/>
<path d="M81.7833 51.5385C82.4765 53.0373 83.1697 54.6515 83.8629 56.1504C84.2095 56.9575 84.4405 57.6493 84.7871 58.4564L85.7113 60.7623L86.6356 63.0683C86.9822 63.8754 87.2132 64.5672 87.5598 65.3743L88.0219 66.5273C88.1375 66.8731 88.3685 67.3343 88.4841 67.6802C88.8306 68.372 89.1772 69.0638 89.5238 69.8709L89.8704 70.7933L89.1772 71.1392C88.1375 71.6004 87.0977 72.1769 85.9424 72.6381C84.9026 73.0993 83.7473 73.5605 82.592 73.9064C83.5163 73.0993 84.4405 72.4075 85.3648 71.7157C86.289 71.0239 87.3288 70.3321 88.253 69.6403L87.9064 70.9086C87.4443 70.2168 86.9822 69.4097 86.5201 68.7179C86.0579 68.0261 85.7113 67.219 85.3648 66.412L84.7871 65.259L84.325 64.106C84.0939 63.2989 83.7473 62.4918 83.5163 61.6847L82.8231 59.2634C82.592 58.4564 82.4765 57.6493 82.2455 56.8422C82.1299 54.9974 81.8989 53.2679 81.7833 51.5385Z" fill="#DD9078"/>
<path d="M48.2796 74.5981C47.8175 74.3675 47.3553 74.0216 47.0087 73.5604C46.6622 73.2145 46.2 72.7533 45.969 72.1769C45.8535 71.9463 45.7379 71.6004 45.7379 71.2545C45.7379 71.1392 45.7379 70.9086 45.7379 70.7933C45.7379 70.678 45.8535 70.4474 45.8535 70.3321C45.969 69.9862 46.2 69.7556 46.4311 69.525C46.5466 69.4097 46.6622 69.2944 46.7777 69.1791L47.1243 68.9485L46.8932 69.2944C46.8932 68.0261 46.8932 66.7578 46.7777 65.6048C46.6622 64.3366 46.5466 63.0683 46.0845 62.0306C45.969 61.8 45.8535 61.5694 45.6224 61.4541C45.5069 61.3388 45.2758 61.2235 45.0447 61.2235C44.9292 61.2235 44.8137 61.2235 44.6982 61.3388C44.5826 61.3388 44.3516 61.4541 44.236 61.4541C44.005 61.5694 43.7739 61.6847 43.5429 61.9153C43.3118 62.1459 43.0807 62.2612 42.9652 62.4918C42.8497 62.7224 42.6186 62.953 42.5031 63.2989C42.272 63.8754 42.1565 64.4519 42.1565 65.1436C41.9254 64.5671 41.9254 63.8754 42.041 63.1836C42.041 62.8377 42.1565 62.4918 42.3876 62.2612C42.5031 61.9153 42.7341 61.6847 42.9652 61.4541L43.3118 61.1082L43.7739 60.7623C43.8895 60.647 44.1205 60.647 44.236 60.5317C44.3516 60.4164 44.5826 60.4164 44.8137 60.3011C45.2758 60.1858 45.7379 60.3011 46.0845 60.647C46.4311 60.8776 46.6622 61.2235 46.7777 61.5694C47.1243 62.2612 47.2398 62.8377 47.4709 63.5295C47.5864 64.2213 47.7019 64.7977 47.7019 65.4895C47.8175 66.7578 47.8175 68.0261 47.7019 69.4097V69.6403L47.4709 69.7556C47.2398 69.8709 47.0088 69.9862 46.8932 70.2168C46.7777 70.3321 46.5466 70.5627 46.4311 70.678C46.3156 70.7933 46.3156 70.9086 46.3156 71.0239C46.3156 71.1392 46.2 71.2545 46.2 71.3698C46.2 71.6004 46.2 71.831 46.2 72.0615C46.3156 72.5227 46.5466 72.9839 46.8932 73.4451C47.5864 73.9063 47.933 74.2522 48.2796 74.5981Z" fill="#DD9078"/>
<path d="M66.4177 61.8C66.4177 61.8 66.5333 62.0306 66.6488 62.4918C66.7643 62.7224 66.7643 62.953 66.8798 63.1835C66.9954 63.4141 67.1109 63.76 67.342 64.1059C67.4575 64.4518 67.8041 64.6824 67.9196 65.0283C68.0351 65.1436 68.1507 65.2589 68.3817 65.4895C68.4973 65.6048 68.6128 65.7201 68.8438 65.8354C69.1904 66.066 69.537 66.1813 69.8836 66.2966C70.1147 66.2966 70.2302 66.4119 70.4613 66.4119C70.6923 66.4119 70.8079 66.4119 71.0389 66.2966L71.6166 66.066L72.1942 65.7201C72.5408 65.4895 72.7719 65.1436 73.0029 64.7977C73.234 64.4518 73.3495 64.1059 73.5806 63.76C73.6961 63.4141 73.8116 63.0683 73.8116 62.6071C73.8116 62.2612 73.8116 61.9153 73.9272 61.6847C73.9272 61.3388 73.9272 61.1082 73.9272 60.8776C73.9272 60.4164 73.9272 60.1858 73.9272 60.1858C73.9272 60.1858 74.0427 60.4164 74.1582 60.8776C74.2737 61.1082 74.2738 61.3388 74.3893 61.6847C74.3893 62.0306 74.5048 62.3765 74.5048 62.7224C74.5048 63.0682 74.5048 63.5294 74.3893 63.9906C74.2738 64.4518 74.1582 64.913 73.9272 65.3742C73.6961 65.8354 73.3495 66.2966 72.8874 66.6425L72.1942 67.1037C71.9632 67.219 71.6166 67.3343 71.3855 67.4496C71.1544 67.4496 70.8079 67.5649 70.4613 67.5649C70.2302 67.5649 69.8836 67.4496 69.6526 67.4496C69.0749 67.3343 68.6128 66.9884 68.1507 66.6425C67.6886 66.2966 67.4575 65.8354 67.2264 65.4895C66.9954 65.0283 66.7643 64.6824 66.6488 64.3365C66.5333 63.9906 66.4177 63.6447 66.4177 63.2988C66.4177 62.953 66.4177 62.7224 66.4177 62.4918C66.4177 62.0306 66.4177 61.8 66.4177 61.8Z" fill="#1F2733"/>
<path d="M87.3287 58.341C87.3287 58.341 87.4443 58.5716 87.5598 59.0328C87.6753 59.2634 87.6753 59.494 87.7908 59.7246C87.9064 59.9552 88.0219 60.3011 88.253 60.647C88.3685 60.9929 88.7151 61.2235 88.8306 61.5694C88.9462 61.6847 89.0617 61.8 89.2927 62.0306C89.4083 62.1459 89.5238 62.2612 89.7549 62.3765C90.1015 62.6071 90.448 62.7224 90.7946 62.8377C91.0257 62.8377 91.1412 62.953 91.3723 62.953C91.6033 62.953 91.7189 62.953 91.9499 62.8377L92.5276 62.6071L93.1052 62.2612C93.4518 62.0306 93.6829 61.6847 93.9139 61.3388C94.145 60.9929 94.2605 60.647 94.4916 60.3011C94.6071 59.9552 94.7226 59.6093 94.7226 59.1481C94.7226 58.8022 94.7226 58.4563 94.8382 58.2257C94.8382 57.8798 94.8382 57.6493 94.8382 57.4187C94.8382 56.9575 94.8382 56.7269 94.8382 56.7269C94.8382 56.7269 94.9537 56.9575 95.0692 57.4187C95.1848 57.6493 95.1848 57.8798 95.3003 58.2257C95.3003 58.5716 95.4158 58.9175 95.4158 59.2634C95.4158 59.6093 95.4158 60.0705 95.3003 60.5317C95.1848 60.9929 95.0692 61.4541 94.8382 61.9153C94.6071 62.3765 94.2605 62.8377 93.7984 63.1836L93.1052 63.6448C92.8742 63.7601 92.5276 63.8754 92.2965 63.9907C92.0655 63.9907 91.7189 64.106 91.3723 64.106C91.1412 64.106 90.7946 63.9907 90.5636 63.9907C89.9859 63.8754 89.5238 63.5295 89.0617 63.1836C88.5996 62.8377 88.3685 62.3765 88.1374 62.0306C87.9064 61.5694 87.6753 61.2235 87.5598 60.8776C87.4443 60.5317 87.3287 60.1858 87.3287 59.8399C87.3287 59.494 87.3287 59.2634 87.3287 59.0328C87.3287 58.5716 87.3287 58.341 87.3287 58.341Z" fill="#1F2733"/>
<path d="M68.2374 78.1034C68.2374 78.1034 68.1218 78.1034 68.2374 78.2187C68.3529 78.334 68.584 78.4493 68.815 78.5646C69.2771 78.9105 70.0858 79.2564 71.0101 79.7176C71.9343 80.1788 73.0896 80.64 74.2449 80.9859C74.8226 81.2165 75.5157 81.3318 76.0934 81.4471C76.671 81.5624 77.3642 81.6777 78.0574 81.793C79.3282 81.9083 80.599 82.0236 81.8699 81.9083C83.1407 81.793 84.1805 81.5624 85.2202 81.2165C86.1445 80.8706 86.9532 80.64 87.5308 80.4094C88.1085 80.1788 88.4551 80.0635 88.4551 80.0635C88.4551 80.0635 88.224 80.4094 87.7619 80.7553C87.2998 81.2165 86.6066 81.793 85.6824 82.3695C84.7581 82.946 83.4873 83.5225 82.1009 83.7531C80.7146 84.099 79.2127 84.099 77.7108 83.9837C77.0176 83.8684 76.2089 83.7531 75.5157 83.5225C74.8226 83.2919 74.1294 83.0613 73.5517 82.7154C72.2809 82.1389 71.2411 81.4471 70.4324 80.7553C69.6237 80.0635 68.9305 79.3717 68.584 78.7952C68.3529 78.5646 68.2374 78.334 68.2374 78.1034C68.1218 78.1034 68.1218 78.2187 68.2374 78.1034Z" fill="#DD9078"/>
<path d="M86.2891 105.613C86.2891 105.613 115.865 102.5 119.677 125.099C123.49 147.813 123.143 153.923 123.143 153.923L94.2606 149.657L86.2891 105.613Z" fill="#8257E6"/>
<path d="M111.242 123.83C109.509 109.417 94.8372 106.304 86.288 105.612C82.4755 110.916 77.1612 114.721 69.8828 114.952C61.5646 115.182 53.9397 112.3 49.8961 105.958C36.9568 107.457 24.133 111.147 21.2447 119.909C15.1217 138.357 20.436 239.82 20.436 239.82C20.436 239.82 72.1934 248.698 114.708 240.627C114.593 240.742 113.553 143.084 111.242 123.83Z" fill="#8257E6"/>
<path opacity="0.2" d="M18.2419 169.258C18.473 202.695 20.437 239.936 20.437 239.936C20.437 239.936 72.1944 248.814 114.709 240.743C114.709 240.743 113.901 166.606 112.168 134.784C80.8591 146.429 49.5505 157.959 18.2419 169.258Z" fill="#352C38"/>
<path d="M50.1277 196.007C50.1277 196.007 48.9724 192.664 54.2868 190.473C59.6011 188.282 114.362 173.985 117.828 174.447C121.294 174.908 163.693 179.981 164.387 182.287C165.08 184.593 113.669 201.196 113.669 201.196L50.1277 196.007Z" fill="#E1EDFF"/>
<path d="M116.558 205.577C116.558 205.577 56.5979 205.347 51.9767 199.928C47.3555 194.509 47.24 190.588 73.4652 195.2C99.6905 199.812 114.825 199.121 114.825 199.121C114.825 199.121 162.885 176.753 164.503 182.172C166.005 187.706 171.088 186.322 116.558 205.577Z" fill="#C0D5FF"/>
<path d="M164.387 182.287C162.885 176.868 114.709 199.236 114.709 199.236C114.709 199.236 114.594 199.236 114.247 199.236C115.287 201.311 116.096 203.271 117.02 205.462C171.088 186.322 166.005 187.706 164.387 182.287Z" fill="#B1C5E8"/>
<path d="M48.3943 183.671C48.3943 183.671 47.239 180.327 52.5534 178.136C57.8677 175.946 112.629 161.649 116.095 162.11C119.561 162.571 161.96 167.644 162.653 169.95C163.346 172.256 111.936 188.859 111.936 188.859L48.3943 183.671Z" fill="#E1EDFF"/>
<path d="M114.824 193.356C114.824 193.356 54.8645 193.125 50.2433 187.706C45.6221 182.287 45.5066 178.367 71.7318 182.979C97.9571 187.591 113.091 186.899 113.091 186.899C113.091 186.899 161.152 164.531 162.769 169.95C164.156 175.369 169.354 173.986 114.824 193.356Z" fill="#C0D5FF"/>
<path d="M162.654 170.065C161.152 164.646 112.976 187.014 112.976 187.014C112.976 187.014 112.861 187.014 112.514 187.014C113.554 189.09 114.363 191.05 115.287 193.24C169.239 173.986 164.156 175.369 162.654 170.065Z" fill="#B1C5E8"/>
<path d="M48.1636 173.64C48.1636 173.64 47.1238 170.757 52.2071 168.797C57.2904 166.837 110.319 154.269 113.669 154.731C117.019 155.192 158.032 159.688 158.726 161.648C159.419 163.609 109.625 178.367 109.625 178.367L48.1636 173.64Z" fill="#E1EDFF"/>
<path d="M112.399 182.172C112.399 182.172 54.4028 181.941 49.8972 177.214C45.3915 172.487 45.3915 169.028 70.6925 173.063C95.9936 177.098 110.666 176.522 110.666 176.522C110.666 176.522 157.224 156.806 158.726 161.648C160.228 166.376 165.196 165.107 112.399 182.172Z" fill="#C0D5FF"/>
<path d="M158.726 161.649C157.224 156.921 110.666 176.522 110.666 176.522C110.666 176.522 110.55 176.522 110.204 176.522C111.128 178.252 112.052 180.096 112.861 181.941C165.196 165.107 160.228 166.376 158.726 161.649Z" fill="#B1C5E8"/>
<path d="M49.781 160.15C49.781 160.15 48.8568 157.267 54.0556 155.422C59.2544 153.693 112.629 143.085 115.98 143.662C119.33 144.123 160.112 150.234 160.69 152.194C161.267 154.154 111.012 166.952 111.012 166.952L49.781 160.15Z" fill="white"/>
<path d="M113.67 171.102C113.67 171.102 55.6737 168.681 51.3991 163.838C47.1245 158.88 47.1245 155.537 72.31 160.494C97.4955 165.452 112.168 165.452 112.168 165.452C112.168 165.452 159.419 147.581 160.69 152.308C162.077 157.036 167.044 155.998 113.67 171.102Z" fill="#C0D5FF"/>
<path d="M160.69 152.309C159.419 147.467 112.168 165.453 112.168 165.453C112.168 165.453 112.052 165.453 111.706 165.453C112.63 167.298 113.439 169.143 114.132 170.988C166.929 155.999 161.961 157.037 160.69 152.309Z" fill="#B1C5E8"/>
<path d="M19.6284 162.34L48.1643 155.422C48.1643 155.422 54.2874 196.93 55.9048 199.236C57.5222 201.542 105.236 203.848 105.236 203.848L119.1 204.655C119.1 204.655 60.526 229.213 43.6586 219.298C26.5602 209.151 19.6284 162.34 19.6284 162.34Z" fill="#FFB39F"/>
<path d="M22.4011 167.298C31.1814 164.646 39.7306 161.418 48.7419 159.458C48.3953 156.921 48.1643 155.422 48.1643 155.422L19.6284 162.34C19.6284 162.34 19.975 164.416 20.5527 167.875C21.2458 167.644 21.8235 167.413 22.4011 167.298Z" fill="#E09B8D"/>
<path d="M113.785 208.46C113.785 208.46 135.505 202.695 135.505 198.313C135.505 193.932 127.649 178.136 133.194 199.236C133.194 199.236 121.641 170.642 130.884 200.619C130.884 200.619 121.872 177.329 127.995 201.196C127.995 201.196 118.753 185.054 125.454 202.349L117.136 205.462L97.1489 205.231L86.5201 215.608L113.785 208.46Z" fill="#FFB39F"/>
<path d="M164.618 187.36C164.618 187.36 153.065 158.766 162.308 188.744C162.308 188.744 153.296 165.453 159.419 189.32C159.419 189.32 150.177 173.178 156.069 190.588L149.715 193.586C152.026 193.817 155.029 193.701 157.455 192.894C164.849 191.395 166.929 188.859 166.929 186.553C166.929 182.172 159.073 166.376 164.618 187.36Z" fill="#FFB39F"/>
<path d="M194.078 490.825C194.078 494.976 190.728 498.435 186.569 498.55C182.41 498.55 178.944 495.207 178.828 491.056L178.482 466.613C178.482 462.462 181.832 459.003 185.991 458.888C190.15 458.888 193.616 462.231 193.732 466.382L194.078 490.825Z" fill="#091E1D"/>
<path d="M87.6753 492.095C87.6753 496.245 84.3249 499.704 80.1658 499.82C76.0067 499.82 72.5408 496.476 72.4253 492.325L72.0787 467.882C72.0787 463.731 75.4291 460.272 79.5882 460.157C83.7472 460.157 87.2131 463.501 87.3287 467.651L87.6753 492.095Z" fill="#091E1D"/>
<path d="M185.529 473.415C185.644 482.87 178.019 490.595 168.546 490.71L97.3797 491.517C87.9062 491.633 80.1657 484.023 80.0502 474.568L72.4252 312.92C72.3097 303.466 79.9347 295.741 89.4081 295.625L172.012 294.588C181.485 294.472 189.226 302.082 189.341 311.536L185.529 473.415Z" fill="#322153"/>
<path d="M188.879 327.793L189.226 311.767C189.11 302.312 181.37 294.703 171.896 294.818L89.2926 295.856C79.8192 295.971 72.1942 303.696 72.3098 313.151L73.1185 329.177L188.879 327.793Z" fill="#1C0C3B"/>
<path d="M202.974 307.732C202.974 310.383 200.894 312.459 198.237 312.574L63.2985 314.188C60.6413 314.188 58.5618 312.113 58.4463 309.461L58.2152 292.397C58.2152 289.745 60.2947 287.67 62.9519 287.554L197.891 285.94C200.548 285.94 202.627 288.016 202.743 290.667L202.974 307.732Z" fill="#322153"/>
<path d="M131.345 355.119L147.057 345.665L143.245 355.465L131.345 355.119Z" fill="white"/>
<path d="M125.453 340.246C125.453 340.246 126.724 340.246 128.688 343.243C130.652 346.241 135.042 354.312 135.042 354.312L143.014 350.738L144.862 347.625C144.862 347.625 141.397 340.707 138.624 340.246H125.453Z" fill="white"/>
<path d="M121.063 342.321C121.063 342.321 123.49 339.669 125.454 341.053C127.418 342.437 130.883 348.202 130.883 348.202L125.223 358.117L115.056 352.468L121.063 342.321Z" fill="white"/>
<path d="M138.508 367.456L139.317 385.673L132.501 377.718L138.508 367.456Z" fill="white"/>
<path d="M154.452 369.301C154.452 369.301 153.874 370.454 150.292 370.8C146.711 371.146 137.469 371.146 137.469 371.146L136.776 379.908L138.624 383.021C138.624 383.021 146.364 383.367 148.097 381.061L154.452 369.301Z" fill="white"/>
<path d="M154.567 364.458C154.567 364.458 155.838 367.802 153.643 368.955C151.563 369.993 144.747 370.223 144.747 370.223L138.624 360.538L148.444 354.197L154.567 364.458Z" fill="white"/>
<path d="M124.759 367.226L108.585 358.693L118.867 356.849L124.759 367.226Z" fill="white"/>
<path d="M115.056 380.024C115.056 380.024 114.363 378.986 115.865 375.758C117.366 372.529 121.988 364.574 121.988 364.574L114.825 359.616L111.243 359.731C111.243 359.731 107.084 366.303 108.124 368.84L115.056 380.024Z" fill="white"/>
<path d="M119.215 382.56C119.215 382.56 115.633 381.868 115.864 379.562C115.98 377.141 119.215 371.261 119.215 371.261L130.652 370.915L131.114 382.56H119.215Z" fill="white"/>
</svg>
